<?xml version="1.0" encoding="utf-8"?>
<svg xmlns="http://www.w3.org/2000/svg" xmlns:xlink="http://www.w3.org/1999/xlink" width="400" height="300" viewBox="0 0 1600 1200">
<defs>
  <clipPath id="clip3000">
    <rect x="0" y="0" width="2000" height="2000"/>
  </clipPath>
</defs>
<defs>
  <clipPath id="clip3001">
    <rect x="0" y="0" width="1600" height="1200"/>
  </clipPath>
</defs>
<polygon clip-path="url(#clip3001)" points="
0,1200 1600,1200 1600,0 0,0 
  " fill="#ffffff" fill-rule="evenodd" fill-opacity="1"/>
<defs>
  <clipPath id="clip3002">
    <rect x="320" y="0" width="1121" height="1121"/>
  </clipPath>
</defs>
<polygon clip-path="url(#clip3001)" points="
118.884,1120.24 1560.63,1120.24 1560.63,23.622 118.884,23.622 
  " fill="#ffffff" fill-rule="evenodd" fill-opacity="1"/>
<defs>
  <clipPath id="clip3003">
    <rect x="118" y="23" width="1443" height="1098"/>
  </clipPath>
</defs>
<polyline clip-path="url(#clip3003)" style="stroke:#000000; stroke-width:1; stroke-opacity:0.1; fill:none" points="
  350.42,1120.24 350.42,23.622 
  "/>
<polyline clip-path="url(#clip3003)" style="stroke:#000000; stroke-width:1; stroke-opacity:0.1; fill:none" points="
  676.645,1120.24 676.645,23.622 
  "/>
<polyline clip-path="url(#clip3003)" style="stroke:#000000; stroke-width:1; stroke-opacity:0.1; fill:none" points="
  1002.87,1120.24 1002.87,23.622 
  "/>
<polyline clip-path="url(#clip3003)" style="stroke:#000000; stroke-width:1; stroke-opacity:0.1; fill:none" points="
  1329.09,1120.24 1329.09,23.622 
  "/>
<polyline clip-path="url(#clip3003)" style="stroke:#000000; stroke-width:1; stroke-opacity:0.1; fill:none" points="
  118.884,1089.2 1560.63,1089.2 
  "/>
<polyline clip-path="url(#clip3003)" style="stroke:#000000; stroke-width:1; stroke-opacity:0.1; fill:none" points="
  118.884,825.29 1560.63,825.29 
  "/>
<polyline clip-path="url(#clip3003)" style="stroke:#000000; stroke-width:1; stroke-opacity:0.1; fill:none" points="
  118.884,561.375 1560.63,561.375 
  "/>
<polyline clip-path="url(#clip3003)" style="stroke:#000000; stroke-width:1; stroke-opacity:0.1; fill:none" points="
  118.884,297.46 1560.63,297.46 
  "/>
<polyline clip-path="url(#clip3003)" style="stroke:#000000; stroke-width:1; stroke-opacity:0.1; fill:none" points="
  118.884,33.5452 1560.63,33.5452 
  "/>
<polyline clip-path="url(#clip3001)" style="stroke:#000000; stroke-width:2; stroke-opacity:1; fill:none" points="
  118.884,1120.24 1560.63,1120.24 
  "/>
<polyline clip-path="url(#clip3001)" style="stroke:#000000; stroke-width:2; stroke-opacity:1; fill:none" points="
  118.884,1120.24 118.884,23.622 
  "/>
<polyline clip-path="url(#clip3001)" style="stroke:#000000; stroke-width:2; stroke-opacity:1; fill:none" points="
  350.42,1120.24 350.42,1103.79 
  "/>
<polyline clip-path="url(#clip3001)" style="stroke:#000000; stroke-width:2; stroke-opacity:1; fill:none" points="
  676.645,1120.24 676.645,1103.79 
  "/>
<polyline clip-path="url(#clip3001)" style="stroke:#000000; stroke-width:2; stroke-opacity:1; fill:none" points="
  1002.87,1120.24 1002.87,1103.79 
  "/>
<polyline clip-path="url(#clip3001)" style="stroke:#000000; stroke-width:2; stroke-opacity:1; fill:none" points="
  1329.09,1120.24 1329.09,1103.79 
  "/>
<polyline clip-path="url(#clip3001)" style="stroke:#000000; stroke-width:2; stroke-opacity:1; fill:none" points="
  118.884,1089.2 140.51,1089.2 
  "/>
<polyline clip-path="url(#clip3001)" style="stroke:#000000; stroke-width:2; stroke-opacity:1; fill:none" points="
  118.884,825.29 140.51,825.29 
  "/>
<polyline clip-path="url(#clip3001)" style="stroke:#000000; stroke-width:2; stroke-opacity:1; fill:none" points="
  118.884,561.375 140.51,561.375 
  "/>
<polyline clip-path="url(#clip3001)" style="stroke:#000000; stroke-width:2; stroke-opacity:1; fill:none" points="
  118.884,297.46 140.51,297.46 
  "/>
<polyline clip-path="url(#clip3001)" style="stroke:#000000; stroke-width:2; stroke-opacity:1; fill:none" points="
  118.884,33.5452 140.51,33.5452 
  "/>
<g clip-path="url(#clip3001)">
<text style="fill:#000000; fill-opacity:1; font-family:Arial,Helvetica Neue,Helvetica,sans-serif; font-size:23px; text-anchor:middle;" transform="rotate(0, 350.42, 1148.64)" x="350.42" y="1148.64">9</text>
</g>
<g clip-path="url(#clip3001)">
<text style="fill:#000000; fill-opacity:1; font-family:Arial,Helvetica Neue,Helvetica,sans-serif; font-size:23px; text-anchor:middle;" transform="rotate(0, 676.645, 1148.64)" x="676.645" y="1148.64">12</text>
</g>
<g clip-path="url(#clip3001)">
<text style="fill:#000000; fill-opacity:1; font-family:Arial,Helvetica Neue,Helvetica,sans-serif; font-size:23px; text-anchor:middle;" transform="rotate(0, 1002.87, 1148.64)" x="1002.87" y="1148.64">15</text>
</g>
<g clip-path="url(#clip3001)">
<text style="fill:#000000; fill-opacity:1; font-family:Arial,Helvetica Neue,Helvetica,sans-serif; font-size:23px; text-anchor:middle;" transform="rotate(0, 1329.09, 1148.64)" x="1329.09" y="1148.64">18</text>
</g>
<g clip-path="url(#clip3001)">
<text style="fill:#000000; fill-opacity:1; font-family:Arial,Helvetica Neue,Helvetica,sans-serif; font-size:23px; text-anchor:end;" transform="rotate(0, 102.884, 1097.7)" x="102.884" y="1097.7">0</text>
</g>
<g clip-path="url(#clip3001)">
<text style="fill:#000000; fill-opacity:1; font-family:Arial,Helvetica Neue,Helvetica,sans-serif; font-size:23px; text-anchor:end;" transform="rotate(0, 102.884, 833.79)" x="102.884" y="833.79">25</text>
</g>
<g clip-path="url(#clip3001)">
<text style="fill:#000000; fill-opacity:1; font-family:Arial,Helvetica Neue,Helvetica,sans-serif; font-size:23px; text-anchor:end;" transform="rotate(0, 102.884, 569.875)" x="102.884" y="569.875">50</text>
</g>
<g clip-path="url(#clip3001)">
<text style="fill:#000000; fill-opacity:1; font-family:Arial,Helvetica Neue,Helvetica,sans-serif; font-size:23px; text-anchor:end;" transform="rotate(0, 102.884, 305.96)" x="102.884" y="305.96">75</text>
</g>
<g clip-path="url(#clip3001)">
<text style="fill:#000000; fill-opacity:1; font-family:Arial,Helvetica Neue,Helvetica,sans-serif; font-size:23px; text-anchor:end;" transform="rotate(0, 102.884, 42.0452)" x="102.884" y="42.0452">100</text>
</g>
<g clip-path="url(#clip3001)">
<text style="fill:#000000; fill-opacity:1; font-family:Arial,Helvetica Neue,Helvetica,sans-serif; font-size:33px; text-anchor:middle;" transform="rotate(0, 839.757, 1195.2)" x="839.757" y="1195.2">Hour</text>
</g>
<g clip-path="url(#clip3001)">
<text style="fill:#000000; fill-opacity:1; font-family:Arial,Helvetica Neue,Helvetica,sans-serif; font-size:33px; text-anchor:middle;" transform="rotate(-90, 28.8, 571.932)" x="28.8" y="571.932">Number of Visitors</text>
</g>
<polygon clip-path="url(#clip3003)" points="
198.182,1004.75 198.182,1089.2 285.175,1089.2 285.175,1004.75 198.182,1004.75 198.182,1004.75 
  " fill="#009af9" fill-rule="evenodd" fill-opacity="1"/>
<polyline clip-path="url(#clip3003)" style="stroke:#000000; stroke-width:2; stroke-opacity:1; fill:none" points="
  198.182,1004.75 198.182,1089.2 285.175,1089.2 285.175,1004.75 198.182,1004.75 
  "/>
<polygon clip-path="url(#clip3003)" points="
306.924,561.375 306.924,1089.2 393.917,1089.2 393.917,561.375 306.924,561.375 306.924,561.375 
  " fill="#009af9" fill-rule="evenodd" fill-opacity="1"/>
<polyline clip-path="url(#clip3003)" style="stroke:#000000; stroke-width:2; stroke-opacity:1; fill:none" points="
  306.924,561.375 306.924,1089.2 393.917,1089.2 393.917,561.375 306.924,561.375 
  "/>
<polygon clip-path="url(#clip3003)" points="
415.665,476.922 415.665,1089.2 502.658,1089.2 502.658,476.922 415.665,476.922 415.665,476.922 
  " fill="#009af9" fill-rule="evenodd" fill-opacity="1"/>
<polyline clip-path="url(#clip3003)" style="stroke:#000000; stroke-width:2; stroke-opacity:1; fill:none" points="
  415.665,476.922 415.665,1089.2 502.658,1089.2 502.658,476.922 415.665,476.922 
  "/>
<polygon clip-path="url(#clip3003)" points="
524.407,392.47 524.407,1089.2 611.4,1089.2 611.4,392.47 524.407,392.47 524.407,392.47 
  " fill="#009af9" fill-rule="evenodd" fill-opacity="1"/>
<polyline clip-path="url(#clip3003)" style="stroke:#000000; stroke-width:2; stroke-opacity:1; fill:none" points="
  524.407,392.47 524.407,1089.2 611.4,1089.2 611.4,392.47 524.407,392.47 
  "/>
<polygon clip-path="url(#clip3003)" points="
633.148,223.564 633.148,1089.2 720.141,1089.2 720.141,223.564 633.148,223.564 633.148,223.564 
  " fill="#009af9" fill-rule="evenodd" fill-opacity="1"/>
<polyline clip-path="url(#clip3003)" style="stroke:#000000; stroke-width:2; stroke-opacity:1; fill:none" points="
  633.148,223.564 633.148,1089.2 720.141,1089.2 720.141,223.564 633.148,223.564 
  "/>
<polygon clip-path="url(#clip3003)" points="
741.889,54.6584 741.889,1089.2 828.883,1089.2 828.883,54.6584 741.889,54.6584 741.889,54.6584 
  " fill="#009af9" fill-rule="evenodd" fill-opacity="1"/>
<polyline clip-path="url(#clip3003)" style="stroke:#000000; stroke-width:2; stroke-opacity:1; fill:none" points="
  741.889,54.6584 741.889,1089.2 828.883,1089.2 828.883,54.6584 741.889,54.6584 
  "/>
<polygon clip-path="url(#clip3003)" points="
850.631,96.8848 850.631,1089.2 937.624,1089.2 937.624,96.8848 850.631,96.8848 850.631,96.8848 
  " fill="#009af9" fill-rule="evenodd" fill-opacity="1"/>
<polyline clip-path="url(#clip3003)" style="stroke:#000000; stroke-width:2; stroke-opacity:1; fill:none" points="
  850.631,96.8848 850.631,1089.2 937.624,1089.2 937.624,96.8848 850.631,96.8848 
  "/>
<polygon clip-path="url(#clip3003)" points="
959.372,139.111 959.372,1089.2 1046.37,1089.2 1046.37,139.111 959.372,139.111 959.372,139.111 
  " fill="#009af9" fill-rule="evenodd" fill-opacity="1"/>
<polyline clip-path="url(#clip3003)" style="stroke:#000000; stroke-width:2; stroke-opacity:1; fill:none" points="
  959.372,139.111 959.372,1089.2 1046.37,1089.2 1046.37,139.111 959.372,139.111 
  "/>
<polygon clip-path="url(#clip3003)" points="
1068.11,878.073 1068.11,1089.2 1155.11,1089.2 1155.11,878.073 1068.11,878.073 1068.11,878.073 
  " fill="#009af9" fill-rule="evenodd" fill-opacity="1"/>
<polyline clip-path="url(#clip3003)" style="stroke:#000000; stroke-width:2; stroke-opacity:1; fill:none" points="
  1068.11,878.073 1068.11,1089.2 1155.11,1089.2 1155.11,878.073 1068.11,878.073 
  "/>
<polygon clip-path="url(#clip3003)" points="
1176.86,1025.87 1176.86,1089.2 1263.85,1089.2 1263.85,1025.87 1176.86,1025.87 1176.86,1025.87 
  " fill="#009af9" fill-rule="evenodd" fill-opacity="1"/>
<polyline clip-path="url(#clip3003)" style="stroke:#000000; stroke-width:2; stroke-opacity:1; fill:none" points="
  1176.86,1025.87 1176.86,1089.2 1263.85,1089.2 1263.85,1025.87 1176.86,1025.87 
  "/>
<polygon clip-path="url(#clip3003)" points="
1285.6,1046.98 1285.6,1089.2 1372.59,1089.2 1372.59,1046.98 1285.6,1046.98 1285.6,1046.98 
  " fill="#009af9" fill-rule="evenodd" fill-opacity="1"/>
<polyline clip-path="url(#clip3003)" style="stroke:#000000; stroke-width:2; stroke-opacity:1; fill:none" points="
  1285.6,1046.98 1285.6,1089.2 1372.59,1089.2 1372.59,1046.98 1285.6,1046.98 
  "/>
<polygon clip-path="url(#clip3003)" points="
1394.34,1089.2 1394.34,1089.2 1481.33,1089.2 1481.33,1089.2 1394.34,1089.2 1394.34,1089.2 
  " fill="#009af9" fill-rule="evenodd" fill-opacity="1"/>
<polyline clip-path="url(#clip3003)" style="stroke:#000000; stroke-width:2; stroke-opacity:1; fill:none" points="
  1394.34,1089.2 1394.34,1089.2 1481.33,1089.2 1394.34,1089.2 
  "/>
</svg>
