<?xml version="1.0" encoding="utf-8"?>
<svg xmlns="http://www.w3.org/2000/svg" xmlns:xlink="http://www.w3.org/1999/xlink" width="450" height="400" viewBox="0 0 1800 1600">
<defs>
  <clipPath id="clip3500">
    <rect x="0" y="0" width="2000" height="2000"/>
  </clipPath>
</defs>
<defs>
  <clipPath id="clip3501">
    <rect x="0" y="0" width="1800" height="1600"/>
  </clipPath>
</defs>
<polygon clip-path="url(#clip3501)" points="
0,1600 1800,1600 1800,0 0,0 
  " fill="#ffffff" fill-rule="evenodd" fill-opacity="1"/>
<defs>
  <clipPath id="clip3502">
    <rect x="360" y="0" width="1261" height="1261"/>
  </clipPath>
</defs>
<polygon clip-path="url(#clip3501)" points="
188.976,1511.02 1611.02,1511.02 1611.02,88.9764 188.976,88.9764 
  " fill="#ffffff" fill-rule="evenodd" fill-opacity="1"/>
<defs>
  <clipPath id="clip3503">
    <rect x="188" y="88" width="1423" height="1423"/>
  </clipPath>
</defs>
<polygon clip-path="url(#clip3501)" points="
900,871.102 1539.92,871.102 1539.82,859.934 1539.53,848.769 1539.04,837.611 1538.36,826.464 1537.49,815.33 
  " fill="#ffb200" fill-rule="evenodd" fill-opacity="1"/>
<g clip-path="url(#clip3501)">
<text style="fill:#000000; fill-opacity:1; font-family:Arial,Helvetica Neue,Helvetica,sans-serif; font-size:23px; text-anchor:start;" transform="rotate(0, 1711.24, 848.898)" x="1711.24" y="848.898">Complex Variables</text>
</g>
<polyline clip-path="url(#clip3501)" style="stroke:#000000; stroke-width:3.4; stroke-opacity:1; fill:none" points="
  1539.31,843.189 1603.24,840.398 1693.24,840.398 
  "/>
<polygon clip-path="url(#clip3501)" points="
900,871.102 1537.49,815.33 1536.42,804.212 1535.15,793.116 1533.69,782.043 1532.04,770.997 1530.2,759.981 1528.16,749 1525.94,738.055 1523.52,727.151 
  1520.91,716.291 1518.12,705.479 1515.13,694.716 1511.96,684.007 1508.6,673.356 1505.06,662.764 1501.33,652.236 1497.42,641.775 1493.32,631.384 1489.05,621.065 
  1484.6,610.823 1479.97,600.66 1475.16,590.579 1470.17,580.584 1465.02,570.678 1459.69,560.862 1454.19,551.142 1448.52,541.519 1442.68,531.996 1436.68,522.576 
  1430.52,513.263 1424.19,504.059 1417.71,494.966 1411.06,485.988 1404.26,477.127 1397.31,468.387 1390.21,459.769 1382.95,451.276 1375.55,442.911 1368.01,434.677 
  1360.32,426.576 1352.49,418.61 1344.53,410.782 1336.43,403.094 1328.19,395.548 1319.83,388.148 1311.33,380.894 1302.72,373.79 1293.97,366.838 1285.11,360.039 
  1276.14,353.395 1267.04,346.91 1257.84,340.584 1248.53,334.419 1239.11,328.418 1229.58,322.583 1219.96,316.914 1210.24,311.415 1200.42,306.085 1190.52,300.928 
  1180.52,295.945 1170.44,291.137 1160.28,286.505 1150.04,282.052 1139.72,277.778 1129.33,273.684 1118.87,269.773 1108.34,266.045 1097.75,262.501 1087.09,259.143 
  1076.39,255.971 1065.62,252.986 1054.81,250.189 1043.95,247.582 1033.05,245.165 1022.1,242.938 1011.12,240.903 1000.11,239.06 989.06,237.409 977.987,235.951 
  966.89,234.687 955.773,233.616 
  " fill="#7f3e74" fill-rule="evenodd" fill-opacity="1"/>
<g clip-path="url(#clip3501)">
<text style="fill:#000000; fill-opacity:1; font-family:Arial,Helvetica Neue,Helvetica,sans-serif; font-size:23px; text-anchor:start;" transform="rotate(0, 1505.74, 381.86)" x="1505.74" y="381.86">PreCalculus</text>
</g>
<polyline clip-path="url(#clip3501)" style="stroke:#000000; stroke-width:3.4; stroke-opacity:1; fill:none" points="
  1352.49,418.61 1397.74,373.36 1487.74,373.36 
  "/>
<polygon clip-path="url(#clip3501)" points="
900,871.102 955.773,233.616 944.639,232.74 933.491,232.058 922.333,231.571 911.168,231.279 900,231.181 888.832,231.279 877.667,231.571 866.509,232.058 
  855.361,232.74 844.227,233.616 833.11,234.687 822.013,235.951 810.94,237.409 799.894,239.06 788.879,240.903 777.897,242.938 766.953,245.165 756.049,247.582 
  745.189,250.189 734.376,252.986 723.614,255.971 712.905,259.143 702.253,262.501 691.662,266.045 681.134,269.773 670.673,273.684 
  " fill="#ff6700" fill-rule="evenodd" fill-opacity="1"/>
<g clip-path="url(#clip3501)">
<text style="fill:#000000; fill-opacity:1; font-family:Arial,Helvetica Neue,Helvetica,sans-serif; font-size:23px; text-anchor:end;" transform="rotate(0, 694.034, 182.539)" x="694.034" y="182.539">Calculus 3</text>
</g>
<polyline clip-path="url(#clip3501)" style="stroke:#000000; stroke-width:3.4; stroke-opacity:1; fill:none" points="
  810.94,237.409 802.034,174.039 712.034,174.039 
  "/>
<polygon clip-path="url(#clip3501)" points="
900,871.102 670.673,273.684 660.281,277.778 
  " fill="#59a3c0" fill-rule="evenodd" fill-opacity="1"/>
<g clip-path="url(#clip3501)">
<text style="fill:#000000; fill-opacity:1; font-family:Arial,Helvetica Neue,Helvetica,sans-serif; font-size:23px; text-anchor:end;" transform="rotate(0, 534.015, 224.669)" x="534.015" y="224.669">Algebra</text>
</g>
<polyline clip-path="url(#clip3501)" style="stroke:#000000; stroke-width:3.4; stroke-opacity:1; fill:none" points="
  665.468,275.708 642.015,216.169 552.015,216.169 
  "/>
<polygon clip-path="url(#clip3501)" points="
900,871.102 660.281,277.778 649.963,282.052 639.721,286.505 629.558,291.137 619.477,295.945 609.482,300.928 599.575,306.085 589.76,311.415 580.039,316.914 
  570.416,322.583 560.893,328.418 551.474,334.419 542.161,340.584 532.956,346.91 523.864,353.395 514.886,360.039 506.025,366.838 497.285,373.79 488.667,380.894 
  480.174,388.148 471.809,395.548 463.575,403.094 455.473,410.782 447.507,418.61 439.679,426.576 431.991,434.677 424.446,442.911 417.045,451.276 409.792,459.769 
  402.688,468.387 395.735,477.127 388.936,485.988 382.293,494.966 375.807,504.059 369.481,513.263 363.317,522.576 357.316,531.996 351.48,541.519 345.812,551.142 
  
  " fill="#c0001f" fill-rule="evenodd" fill-opacity="1"/>
<g clip-path="url(#clip3501)">
<text style="fill:#000000; fill-opacity:1; font-family:Arial,Helvetica Neue,Helvetica,sans-serif; font-size:23px; text-anchor:end;" transform="rotate(0, 330.191, 348.352)" x="330.191" y="348.352">Intro to PDE</text>
</g>
<polyline clip-path="url(#clip3501)" style="stroke:#000000; stroke-width:3.4; stroke-opacity:1; fill:none" points="
  480.174,388.148 438.191,339.852 348.191,339.852 
  "/>
<polygon clip-path="url(#clip3501)" points="
900,871.102 345.812,551.142 340.312,560.862 334.983,570.678 329.826,580.584 324.843,590.579 320.034,600.66 315.403,610.823 310.949,621.065 306.675,631.384 
  302.582,641.775 298.671,652.236 294.943,662.764 291.399,673.356 288.04,684.007 284.868,694.716 281.884,705.479 279.087,716.291 276.48,727.151 274.063,738.055 
  271.836,749 269.801,759.981 267.957,770.997 266.306,782.043 264.849,793.116 
  " fill="#cda161" fill-rule="evenodd" fill-opacity="1"/>
<g clip-path="url(#clip3501)">
<text style="fill:#000000; fill-opacity:1; font-family:Arial,Helvetica Neue,Helvetica,sans-serif; font-size:23px; text-anchor:end;" transform="rotate(0, 124.462, 656.247)" x="124.462" y="656.247">Calculus 2</text>
</g>
<polyline clip-path="url(#clip3501)" style="stroke:#000000; stroke-width:3.4; stroke-opacity:1; fill:none" points="
  293.148,668.052 232.462,647.747 142.462,647.747 
  "/>
<polygon clip-path="url(#clip3501)" points="
900,871.102 264.849,793.116 263.584,804.212 262.514,815.33 261.638,826.464 260.956,837.611 260.469,848.769 
  " fill="#807066" fill-rule="evenodd" fill-opacity="1"/>
<g clip-path="url(#clip3501)">
<text style="fill:#000000; fill-opacity:1; font-family:Arial,Helvetica Neue,Helvetica,sans-serif; font-size:23px; text-anchor:end;" transform="rotate(0, 90.2565, 824.374)" x="90.2565" y="824.374">Probability &amp; Statistics</text>
</g>
<polyline clip-path="url(#clip3501)" style="stroke:#000000; stroke-width:3.4; stroke-opacity:1; fill:none" points="
  262.051,820.895 198.257,815.874 108.257,815.874 
  "/>
<polygon clip-path="url(#clip3501)" points="
900,871.102 260.469,848.769 260.176,859.934 260.079,871.102 260.176,882.271 260.469,893.435 260.956,904.593 261.638,915.741 262.514,926.875 263.584,937.992 
  264.849,949.089 266.306,960.162 267.957,971.208 269.801,982.224 271.836,993.205 274.063,1004.15 
  " fill="#007d33" fill-rule="evenodd" fill-opacity="1"/>
<g clip-path="url(#clip3501)">
<text style="fill:#000000; fill-opacity:1; font-family:Arial,Helvetica Neue,Helvetica,sans-serif; font-size:23px; text-anchor:end;" transform="rotate(0, 90.7652, 940.952)" x="90.7652" y="940.952">Other</text>
</g>
<polyline clip-path="url(#clip3501)" style="stroke:#000000; stroke-width:3.4; stroke-opacity:1; fill:none" points="
  262.514,926.875 198.765,932.452 108.765,932.452 
  "/>
<polygon clip-path="url(#clip3501)" points="
900,871.102 274.063,1004.15 276.48,1015.05 279.087,1025.91 281.884,1036.73 284.868,1047.49 288.04,1058.2 291.399,1068.85 294.943,1079.44 298.671,1089.97 
  302.582,1100.43 306.675,1110.82 310.949,1121.14 315.403,1131.38 320.034,1141.54 324.843,1151.63 329.826,1161.62 334.983,1171.53 340.312,1181.34 345.812,1191.06 
  351.48,1200.69 357.316,1210.21 363.317,1219.63 369.481,1228.94 375.807,1238.15 382.293,1247.24 388.936,1256.22 395.735,1265.08 402.688,1273.82 409.792,1282.44 
  417.045,1290.93 424.446,1299.29 431.991,1307.53 439.679,1315.63 447.507,1323.6 455.473,1331.42 463.575,1339.11 471.809,1346.66 480.174,1354.06 488.667,1361.31 
  497.285,1368.41 506.025,1375.37 514.886,1382.17 523.864,1388.81 532.956,1395.3 542.161,1401.62 551.474,1407.79 560.893,1413.79 570.416,1419.62 580.039,1425.29 
  589.76,1430.79 599.575,1436.12 609.482,1441.28 619.477,1446.26 629.558,1451.07 639.721,1455.7 649.963,1460.15 660.281,1464.43 670.673,1468.52 681.134,1472.43 
  691.662,1476.16 702.253,1479.7 712.905,1483.06 723.614,1486.23 734.376,1489.22 745.189,1492.02 756.049,1494.62 766.953,1497.04 777.897,1499.27 788.879,1501.3 
  799.894,1503.15 810.94,1504.8 822.013,1506.25 833.11,1507.52 844.227,1508.59 855.361,1509.46 866.509,1510.15 877.667,1510.63 888.832,1510.93 900,1511.02 
  911.168,1510.93 922.333,1510.63 933.491,1510.15 944.639,1509.46 955.773,1508.59 966.89,1507.52 977.987,1506.25 989.06,1504.8 1000.11,1503.15 1011.12,1501.3 
  1022.1,1499.27 1033.05,1497.04 1043.95,1494.62 1054.81,1492.02 1065.62,1489.22 1076.39,1486.23 1087.09,1483.06 1097.75,1479.7 1108.34,1476.16 1118.87,1472.43 
  1129.33,1468.52 1139.72,1464.43 1150.04,1460.15 1160.28,1455.7 1170.44,1451.07 1180.52,1446.26 
  " fill="#f6768d" fill-rule="evenodd" fill-opacity="1"/>
<g clip-path="url(#clip3501)">
<text style="fill:#000000; fill-opacity:1; font-family:Arial,Helvetica Neue,Helvetica,sans-serif; font-size:23px; text-anchor:end;" transform="rotate(0, 483.425, 1512.28)" x="483.425" y="1512.28">Calculus 1</text>
</g>
<polyline clip-path="url(#clip3501)" style="stroke:#000000; stroke-width:3.4; stroke-opacity:1; fill:none" points="
  619.477,1446.26 591.425,1503.78 501.425,1503.78 
  "/>
<polygon clip-path="url(#clip3501)" points="
900,871.102 1180.52,1446.26 1190.52,1441.28 1200.42,1436.12 1210.24,1430.79 1219.96,1425.29 1229.58,1419.62 1239.11,1413.79 1248.53,1407.79 1257.84,1401.62 
  1267.04,1395.3 1276.14,1388.81 1285.11,1382.17 1293.97,1375.37 1302.72,1368.41 1311.33,1361.31 1319.83,1354.06 1328.19,1346.66 1336.43,1339.11 1344.53,1331.42 
  1352.49,1323.6 1360.32,1315.63 1368.01,1307.53 1375.55,1299.29 1382.95,1290.93 1390.21,1282.44 1397.31,1273.82 1404.26,1265.08 1411.06,1256.22 1417.71,1247.24 
  1424.19,1238.15 1430.52,1228.94 1436.68,1219.63 1442.68,1210.21 1448.52,1200.69 1454.19,1191.06 1459.69,1181.34 1465.02,1171.53 1470.17,1161.62 1475.16,1151.63 
  1479.97,1141.54 1484.6,1131.38 1489.05,1121.14 1493.32,1110.82 1497.42,1100.43 1501.33,1089.97 1505.06,1079.44 1508.6,1068.85 1511.96,1058.2 1515.13,1047.49 
  1518.12,1036.73 1520.91,1025.91 1523.52,1015.05 1525.94,1004.15 1528.16,993.205 1530.2,982.224 1532.04,971.208 1533.69,960.162 1535.15,949.089 1536.42,937.992 
  1537.49,926.875 1538.36,915.741 1539.04,904.593 1539.53,893.435 1539.82,882.271 1539.92,871.102 
  " fill="#00528a" fill-rule="evenodd" fill-opacity="1"/>
<g clip-path="url(#clip3501)">
<text style="fill:#000000; fill-opacity:1; font-family:Arial,Helvetica Neue,Helvetica,sans-serif; font-size:23px; text-anchor:start;" transform="rotate(0, 1604.95, 1252.62)" x="1604.95" y="1252.62">Differential Equations</text>
</g>
<polyline clip-path="url(#clip3501)" style="stroke:#000000; stroke-width:3.4; stroke-opacity:1; fill:none" points="
  1442.68,1210.21 1496.95,1244.12 1586.95,1244.12 
  "/>
</svg>
