<?xml version="1.0" encoding="utf-8"?>
<svg xmlns="http://www.w3.org/2000/svg" xmlns:xlink="http://www.w3.org/1999/xlink" width="450" height="400" viewBox="0 0 1800 1600">
<defs>
  <clipPath id="clip3600">
    <rect x="0" y="0" width="2000" height="2000"/>
  </clipPath>
</defs>
<defs>
  <clipPath id="clip3601">
    <rect x="0" y="0" width="1800" height="1600"/>
  </clipPath>
</defs>
<polygon clip-path="url(#clip3601)" points="
0,1600 1800,1600 1800,0 0,0 
  " fill="#ffffff" fill-rule="evenodd" fill-opacity="1"/>
<defs>
  <clipPath id="clip3602">
    <rect x="360" y="0" width="1261" height="1261"/>
  </clipPath>
</defs>
<polygon clip-path="url(#clip3601)" points="
188.976,1471.65 1532.28,1471.65 1532.28,128.346 188.976,128.346 
  " fill="#ffffff" fill-rule="evenodd" fill-opacity="1"/>
<defs>
  <clipPath id="clip3603">
    <rect x="188" y="128" width="1344" height="1344"/>
  </clipPath>
</defs>
<polygon clip-path="url(#clip3601)" points="
860.63,867.165 1465.12,867.165 1465.03,856.616 
  " fill="#ffb200" fill-rule="evenodd" fill-opacity="1"/>
<g clip-path="url(#clip3601)">
<text style="fill:#000000; fill-opacity:1; font-family:Arial,Helvetica Neue,Helvetica,sans-serif; font-size:23px; text-anchor:start;" transform="rotate(0, 1633.54, 869.863)" x="1633.54" y="869.863">Special Session</text>
</g>
<polyline clip-path="url(#clip3601)" style="stroke:#000000; stroke-width:3.4; stroke-opacity:1; fill:none" points="
  1465.1,861.89 1525.54,861.363 1615.54,861.363 
  "/>
<polygon clip-path="url(#clip3601)" points="
860.63,867.165 1465.03,856.616 1464.75,846.069 1464.29,835.529 1463.65,824.998 1462.82,814.481 1461.81,803.979 1460.61,793.497 1459.24,783.037 1457.68,772.603 
  
  " fill="#7f3e74" fill-rule="evenodd" fill-opacity="1"/>
<g clip-path="url(#clip3601)">
<text style="fill:#000000; fill-opacity:1; font-family:Arial,Helvetica Neue,Helvetica,sans-serif; font-size:23px; text-anchor:start;" transform="rotate(0, 1631.04, 817.712)" x="1631.04" y="817.712">Athlete Study Hours</text>
</g>
<polyline clip-path="url(#clip3601)" style="stroke:#000000; stroke-width:3.4; stroke-opacity:1; fill:none" points="
  1462.82,814.481 1523.04,809.212 1613.04,809.212 
  "/>
<polygon clip-path="url(#clip3601)" points="
860.63,867.165 1457.68,772.603 1455.93,762.197 1454.01,751.824 1451.91,741.485 1449.63,731.185 1447.16,720.926 1444.52,710.712 1441.7,700.546 1438.7,690.43 
  1435.53,680.368 1432.18,670.363 1428.66,660.418 1424.97,650.536 1421.1,640.72 1417.06,630.973 1412.86,621.298 1408.48,611.698 1403.94,602.175 1399.23,592.733 
  1394.36,583.375 1389.33,574.104 1384.13,564.921 1378.78,555.831 1373.26,546.835 1367.6,537.937 1361.77,529.14 1355.8,520.445 1349.67,511.856 1343.4,503.375 
  1336.97,495.005 1330.41,486.749 1323.69,478.608 1316.84,470.585 1309.85,462.684 1302.72,454.905 1295.46,447.253 1288.07,439.728 1280.54,432.333 1272.89,425.071 
  1265.11,417.943 1257.21,410.952 1249.19,404.101 1241.05,397.39 1232.79,390.822 1224.42,384.4 1215.94,378.124 1207.35,371.998 1198.66,366.022 1189.86,360.199 
  1180.96,354.53 1171.96,349.018 1162.87,343.663 1153.69,338.468 1144.42,333.434 1135.06,328.562 1125.62,323.855 1116.1,319.313 1106.5,314.938 1096.82,310.731 
  1087.08,306.694 1077.26,302.827 1067.38,299.132 1057.43,295.611 1047.43,292.263 1037.37,289.09 1027.25,286.094 1017.08,283.275 1006.87,280.633 996.61,278.17 
  986.31,275.887 975.972,273.783 965.598,271.861 955.193,270.119 944.758,268.56 934.298,267.183 923.816,265.989 913.315,264.977 902.797,264.15 892.266,263.506 
  881.726,263.045 871.18,262.769 860.63,262.677 850.08,262.769 839.534,263.045 828.993,263.506 818.463,264.15 807.945,264.977 797.444,265.989 786.961,267.183 
  776.501,268.56 766.067,270.119 755.662,271.861 745.288,273.783 734.95,275.887 724.65,278.17 714.391,280.633 704.177,283.275 694.01,286.094 683.895,289.09 
  673.833,292.263 663.828,295.611 653.883,299.132 644.001,302.827 634.185,306.694 624.438,310.731 614.762,314.938 605.162,319.313 595.64,323.855 586.198,328.562 
  576.84,333.434 567.568,338.468 558.386,343.663 549.295,349.018 
  " fill="#ff6700" fill-rule="evenodd" fill-opacity="1"/>
<g clip-path="url(#clip3601)">
<text style="fill:#000000; fill-opacity:1; font-family:Arial,Helvetica Neue,Helvetica,sans-serif; font-size:23px; text-anchor:start;" transform="rotate(0, 1249.64, 273.028)" x="1249.64" y="273.028">Required MAC Hours</text>
</g>
<polyline clip-path="url(#clip3601)" style="stroke:#000000; stroke-width:3.4; stroke-opacity:1; fill:none" points="
  1116.1,319.313 1141.64,264.528 1231.64,264.528 
  "/>
<polygon clip-path="url(#clip3601)" points="
860.63,867.165 549.295,349.018 540.3,354.53 531.402,360.199 522.604,366.022 513.91,371.998 505.321,378.124 496.84,384.4 488.47,390.822 480.213,397.39 
  472.072,404.101 464.05,410.952 456.148,417.943 448.37,425.071 440.717,432.333 433.192,439.728 425.798,447.253 418.535,454.905 411.408,462.684 404.417,470.585 
  397.565,478.608 390.854,486.749 
  " fill="#59a3c0" fill-rule="evenodd" fill-opacity="1"/>
<g clip-path="url(#clip3601)">
<text style="fill:#000000; fill-opacity:1; font-family:Arial,Helvetica Neue,Helvetica,sans-serif; font-size:23px; text-anchor:end;" transform="rotate(0, 316.392, 373.831)" x="316.392" y="373.831">Appointment</text>
</g>
<polyline clip-path="url(#clip3601)" style="stroke:#000000; stroke-width:3.4; stroke-opacity:1; fill:none" points="
  464.05,410.952 424.392,365.331 334.392,365.331 
  "/>
<polygon clip-path="url(#clip3601)" points="
860.63,867.165 390.854,486.749 384.287,495.005 377.864,503.375 371.589,511.856 365.462,520.445 359.487,529.14 353.663,537.937 347.995,546.835 342.482,555.831 
  337.128,564.921 331.933,574.104 326.899,583.375 322.027,592.733 317.32,602.175 312.778,611.698 308.402,621.298 304.196,630.973 300.158,640.72 296.292,650.536 
  292.597,660.418 289.075,670.363 285.727,680.368 282.555,690.43 279.559,700.546 276.739,710.712 274.098,720.926 271.635,731.185 269.351,741.485 267.248,751.824 
  265.325,762.197 263.584,772.603 262.025,783.037 260.647,793.497 259.453,803.979 258.442,814.481 257.614,824.998 256.97,835.529 256.51,846.069 256.234,856.616 
  256.142,867.165 256.234,877.715 256.51,888.262 256.97,898.802 257.614,909.332 258.442,919.85 259.453,930.352 260.647,940.834 262.025,951.294 263.584,961.728 
  265.325,972.134 267.248,982.507 269.351,992.846 271.635,1003.15 274.098,1013.4 276.739,1023.62 279.559,1033.78 282.555,1043.9 285.727,1053.96 289.075,1063.97 
  292.597,1073.91 296.292,1083.79 300.158,1093.61 304.196,1103.36 308.402,1113.03 312.778,1122.63 317.32,1132.16 322.027,1141.6 326.899,1150.96 331.933,1160.23 
  337.128,1169.41 342.482,1178.5 347.995,1187.5 353.663,1196.39 359.487,1205.19 365.462,1213.89 371.589,1222.47 377.864,1230.96 384.287,1239.33 390.854,1247.58 
  397.565,1255.72 404.417,1263.75 411.408,1271.65 418.535,1279.43 425.798,1287.08 433.192,1294.6 440.717,1302 448.37,1309.26 456.148,1316.39 464.05,1323.38 
  472.072,1330.23 480.213,1336.94 488.47,1343.51 496.84,1349.93 505.321,1356.21 513.91,1362.33 522.604,1368.31 531.402,1374.13 540.3,1379.8 549.295,1385.31 
  558.386,1390.67 567.568,1395.86 576.84,1400.9 586.198,1405.77 595.64,1410.48 605.162,1415.02 614.762,1419.39 624.438,1423.6 634.185,1427.64 644.001,1431.5 
  653.883,1435.2 663.828,1438.72 673.833,1442.07 683.895,1445.24 694.01,1448.24 704.177,1451.06 714.391,1453.7 724.65,1456.16 734.95,1458.44 745.288,1460.55 
  755.662,1462.47 766.067,1464.21 776.501,1465.77 786.961,1467.15 797.444,1468.34 807.945,1469.35 818.463,1470.18 828.993,1470.83 839.534,1471.29 850.08,1471.56 
  860.63,1471.65 871.18,1471.56 881.726,1471.29 892.266,1470.83 902.797,1470.18 913.315,1469.35 923.816,1468.34 934.298,1467.15 944.758,1465.77 955.193,1464.21 
  965.598,1462.47 975.972,1460.55 986.31,1458.44 996.61,1456.16 1006.87,1453.7 
  " fill="#c0001f" fill-rule="evenodd" fill-opacity="1"/>
<g clip-path="url(#clip3601)">
<text style="fill:#000000; fill-opacity:1; font-family:Arial,Helvetica Neue,Helvetica,sans-serif; font-size:23px; text-anchor:end;" transform="rotate(0, 191.828, 1232.94)" x="191.828" y="1232.94">Walk In</text>
</g>
<polyline clip-path="url(#clip3601)" style="stroke:#000000; stroke-width:3.4; stroke-opacity:1; fill:none" points="
  350.81,1191.96 299.828,1224.44 209.828,1224.44 
  "/>
<polygon clip-path="url(#clip3601)" points="
860.63,867.165 1006.87,1453.7 1017.08,1451.06 1027.25,1448.24 1037.37,1445.24 1047.43,1442.07 1057.43,1438.72 1067.38,1435.2 1077.26,1431.5 1087.08,1427.64 
  1096.82,1423.6 1106.5,1419.39 1116.1,1415.02 1125.62,1410.48 1135.06,1405.77 1144.42,1400.9 1153.69,1395.86 1162.87,1390.67 1171.96,1385.31 1180.96,1379.8 
  1189.86,1374.13 1198.66,1368.31 1207.35,1362.33 1215.94,1356.21 1224.42,1349.93 1232.79,1343.51 1241.05,1336.94 1249.19,1330.23 1257.21,1323.38 1265.11,1316.39 
  1272.89,1309.26 1280.54,1302 1288.07,1294.6 1295.46,1287.08 1302.72,1279.43 1309.85,1271.65 1316.84,1263.75 1323.69,1255.72 1330.41,1247.58 1336.97,1239.33 
  1343.4,1230.96 1349.67,1222.47 1355.8,1213.89 1361.77,1205.19 1367.6,1196.39 1373.26,1187.5 1378.78,1178.5 1384.13,1169.41 1389.33,1160.23 1394.36,1150.96 
  1399.23,1141.6 1403.94,1132.16 1408.48,1122.63 1412.86,1113.03 1417.06,1103.36 1421.1,1093.61 1424.97,1083.79 1428.66,1073.91 1432.18,1063.97 1435.53,1053.96 
  1438.7,1043.9 1441.7,1033.78 
  " fill="#cda161" fill-rule="evenodd" fill-opacity="1"/>
<g clip-path="url(#clip3601)">
<text style="fill:#000000; fill-opacity:1; font-family:Arial,Helvetica Neue,Helvetica,sans-serif; font-size:23px; text-anchor:start;" transform="rotate(0, 1430.53, 1353.98)" x="1430.53" y="1353.98">Project Presentation</text>
</g>
<polyline clip-path="url(#clip3601)" style="stroke:#000000; stroke-width:3.4; stroke-opacity:1; fill:none" points="
  1280.54,1302 1322.53,1345.48 1412.53,1345.48 
  "/>
<polygon clip-path="url(#clip3601)" points="
860.63,867.165 1441.7,1033.78 1444.52,1023.62 1447.16,1013.4 1449.63,1003.15 1451.91,992.846 1454.01,982.507 1455.93,972.134 1457.68,961.728 1459.24,951.294 
  1460.61,940.834 1461.81,930.352 1462.82,919.85 1463.65,909.332 1464.29,898.802 1464.75,888.262 1465.03,877.715 1465.12,867.165 
  " fill="#807066" fill-rule="evenodd" fill-opacity="1"/>
<g clip-path="url(#clip3601)">
<text style="fill:#000000; fill-opacity:1; font-family:Arial,Helvetica Neue,Helvetica,sans-serif; font-size:23px; text-anchor:start;" transform="rotate(0, 1627.1, 968.207)" x="1627.1" y="968.207">See my GSA</text>
</g>
<polyline clip-path="url(#clip3601)" style="stroke:#000000; stroke-width:3.4; stroke-opacity:1; fill:none" points="
  1459.24,951.294 1519.1,959.707 1609.1,959.707 
  "/>
</svg>
