<?xml version="1.0" encoding="UTF-8" standalone="no"?>
<svg
   id="a2378823-09dc-4735-8abf-b7d0408d4a79"
   data-name="Layer 1"
   width="584.14099"
   height="582.53467"
   viewBox="0 0 584.14101 582.53467"
   version="1.1"
   sodipodi:docname="undraw_Map_dark_re_36sy.svg"
   inkscape:version="1.1.1 (c3084ef, 2021-09-22)"
   xmlns:inkscape="http://www.inkscape.org/namespaces/inkscape"
   xmlns:sodipodi="http://sodipodi.sourceforge.net/DTD/sodipodi-0.dtd"
   xmlns="http://www.w3.org/2000/svg"
   xmlns:svg="http://www.w3.org/2000/svg">
  <defs
     id="defs240" />
  <sodipodi:namedview
     id="namedview238"
     pagecolor="#ffffff"
     bordercolor="#666666"
     borderopacity="1.0"
     inkscape:pageshadow="2"
     inkscape:pageopacity="0.0"
     inkscape:pagecheckerboard="0"
     showgrid="false"
     showguides="false"
     fit-margin-top="0"
     fit-margin-left="0"
     fit-margin-right="0"
     fit-margin-bottom="0"
     inkscape:zoom="0.72579837"
     inkscape:cx="350.64835"
     inkscape:cy="268.66966"
     inkscape:window-width="1366"
     inkscape:window-height="768"
     inkscape:window-x="0"
     inkscape:window-y="0"
     inkscape:window-maximized="0"
     inkscape:current-layer="layer6" />
  <g
     inkscape:groupmode="layer"
     id="layer3"
     inkscape:label="Background"
     style="display:inline">
    <path
       d="m 387.94865,582.53466 -0.12361,-0.0145 L 194.64243,560.30767 18.974846,580.50633 A 17.36827,21.49791 0 0 1 0.07459403,561.08898 Q 2.102163e-4,560.09764 1.455839e-4,559.10098 V 41.97384 A 17.290477,21.40162 0 0 1 15.761864,20.56845 L 194.64245,0 194.76606,0.01452 387.94864,22.22697 563.61538,2.02833 a 17.368278,21.49792 0 0 1 18.90036,19.41721 q 0.0744,0.99142 0.0745,1.98819 v 517.12669 a 17.290671,21.40186 0 0 1 -15.76164,21.40576 z"
       fill="#3f3d56"
       id="path187"
       style="stroke-width:0.898835" />
    <path
       d="M 279.11916,191.31143 C 240.90128,157.60113 200.68987,125.63552 159.61145,96.30749 l -2.06178,-1.47175 v 99.46885 H 282.5124 Z m -118.83871,-0.31421 v -90.36533 c 39.07832,27.9968 77.3439,58.37488 113.83473,90.36536 z m 312.25647,204.73386 q -24.79246,-31.21739 -50.86835,-61.01252 -7.18885,-8.22285 -14.46642,-16.31353 -44.41364,-49.412 -91.74909,-93.98694 l -0.36869,-0.34726 h -157.5347 v 174.46322 h 317.2131 z M 160.28045,395.22674 V 227.3782 h 153.86847 q 45.64272,42.99975 88.81359,90.81186 7.49599,8.29728 14.8899,16.727 25.84698,29.419 50.48599,60.30969 z m 312.25647,0.50434 q -24.79246,-31.21739 -50.86835,-61.01252 -7.18885,-8.22285 -14.46642,-16.31353 -44.41364,-49.412 -91.74909,-93.98694 l -0.36869,-0.34726 h -157.5347 v 174.46322 h 317.2131 z M 160.28045,395.22674 V 227.3782 h 153.86847 q 45.64272,42.99975 88.81359,90.81186 7.49599,8.29728 14.8899,16.727 25.84698,29.419 50.48599,60.30969 z M 279.11916,191.31143 C 240.90128,157.60113 200.68987,125.63552 159.61145,96.30749 l -2.06178,-1.47175 v 99.46885 H 282.5124 Z m -118.83871,-0.31421 v -90.36533 c 39.07832,27.9968 77.3439,58.37488 113.83473,90.36536 z m 118.83871,0.31421 C 240.90128,157.60113 200.68987,125.63552 159.61145,96.30749 l -2.06178,-1.47175 v 99.46885 H 282.5124 Z m -118.83871,-0.31421 v -90.36533 c 39.07832,27.9968 77.3439,58.37488 113.83473,90.36536 z m 312.25647,204.73386 q -24.79246,-31.21739 -50.86835,-61.01252 -7.18885,-8.22285 -14.46642,-16.31353 -44.41364,-49.412 -91.74909,-93.98694 l -0.36869,-0.34726 h -157.5347 v 174.46322 h 317.2131 z M 160.28045,395.22674 V 227.3782 h 153.86847 q 45.64272,42.99975 88.81359,90.81186 7.49599,8.29728 14.8899,16.727 25.84698,29.419 50.48599,60.30969 z M 22.38733,428.30033 v 3.30737 h 107.85405 v 47.95673 H 22.38733 v 3.30737 h 110.58486 v -54.57147 z m 135.16234,84.33771 v 33.51184 l 2.73083,-0.306 v -29.89855 h 420.54756 v -3.30737 z M 580.82806,431.6077 v -3.30737 H 157.54967 v 54.57147 h 423.27839 v -3.30737 H 160.28048 V 431.60766 Z M 325.80293,190.9972 A 1332.4823,1613.7958 0 0 0 160.28048,58.90953 v -33.487 l -2.73084,0.30592 v 33.74622 l 2.10278,2.80012 a 1329.7496,1610.4861 0 0 1 164.8531,131.68254 l 0.3687,0.34726 h 255.95384 v -3.30737 z m -195.56158,0 H 22.38733 v 3.30737 H 132.97219 V 28.49009 l -2.73083,0.30593 z m 450.58671,33.07363 H 355.81472 l 2.9425,2.927 q 41.55599,41.41231 81.60382,87.84354 5.6939,6.59811 11.34668,13.30383 28.14109,33.301 55.18326,68.77655 l 2.25133,1.61236 h 71.68573 v -3.30737 h -71.5136 q -26.74851,-35.12421 -54.6576,-68.21429 -5.58084,-6.623 -11.203,-13.155 -39.18085,-45.53 -80.03407,-86.47922 H 580.82806 Z M 22.38733,512.638 v 3.30733 h 107.85405 v 33.272 l 2.73084,-0.30591 V 512.638 Z m 0,-288.56717 v 3.30737 H 130.24138 V 395.22674 H 22.38733 v 3.30737 H 132.97219 V 224.07083 Z m 256.73182,-32.7594 c -38.21788,-33.7103 -78.42929,-65.67591 -119.5077,-95.00394 l -2.06179,-1.47175 v 99.46885 H 282.5124 Z m -118.8387,-0.31421 v -90.36533 c 39.07831,27.9968 77.34389,58.37488 113.83472,90.36536 z m 312.25646,204.73386 q -24.79246,-31.21739 -50.86835,-61.01252 -7.18884,-8.22285 -14.46641,-16.31353 -44.41364,-49.412 -91.74909,-93.98694 l -0.36869,-0.34726 h -157.5347 v 174.46322 h 317.2131 z M 160.28045,395.22674 V 227.3782 h 153.86847 q 45.64272,42.99975 88.81359,90.81186 7.49599,8.29728 14.8899,16.727 25.84698,29.419 50.48599,60.30969 z M 279.11916,191.31143 C 240.90128,157.60113 200.68987,125.63552 159.61145,96.30749 l -2.06178,-1.47175 v 99.46885 H 282.5124 Z m -118.83871,-0.31421 v -90.36533 c 39.07832,27.9968 77.3439,58.37488 113.83473,90.36536 z m 312.25647,204.73386 q -24.79246,-31.21739 -50.86835,-61.01252 -7.18885,-8.22285 -14.46642,-16.31353 -44.41364,-49.412 -91.74909,-93.98694 l -0.36869,-0.34726 h -157.5347 v 174.46322 h 317.2131 z M 160.28045,395.22674 V 227.3782 h 153.86847 q 45.64272,42.99975 88.81359,90.81186 7.49599,8.29728 14.8899,16.727 25.84698,29.419 50.48599,60.30969 z"
       fill="#ffffff"
       id="path189"
       style="stroke-width:0.908671" />
  </g>
  <g
     inkscape:groupmode="layer"
     id="layer4"
     inkscape:label="Foreground"
     style="display:inline">
    <circle
       cx="489.36398"
       cy="100.27214"
       r="30.22324"
       fill="#ff6584"
       id="circle197" />
    <path
       d="M 823.58447,352.14173 H 675.31834 a 3.02384,3.02384 0 0 1 -0.55407,-0.0439 l 70.12308,-121.46324 a 4.90981,4.90981 0 0 1 8.54664,0 l 47.06138,81.51127 2.25462,3.90031 z"
       transform="translate(-239.4438,-158.73267)"
       fill="#ffffff"
       id="path199" />
    <polygon
       points="558.369,157.313 560.157,154.713 561.052,153.413 563.306,157.313 584.141,193.409 533.519,193.409 "
       opacity="0.2"
       style="isolation:isolate"
       id="polygon201" />
    <path
       d="M 584.14067,193.40906 H 538.4562 l 8.85275,-36.09556 0.63707,-2.60022 11.53594,-47.03945 c 0.7563,-3.08293 2.5757,-3.27491 3.46487,-0.58148 a 2.0851168,5.853 0 0 1 0.16612,0.58148 z"
       fill="#ffffff"
       id="path203"
       style="stroke-width:0.596865" />
    <circle
       cx="108.20989"
       cy="349.33487"
       r="15.2965"
       fill="#ffffff"
       id="circle221" />
    <polygon
       points="107.98,347.031 109.685,395.409 106.552,395.409 "
       fill="#cbcbcb"
       id="polygon223" />
    <polygon
       points="108.21,357.352 107.842,356.707 108.256,356.2 111.62,351.546 "
       fill="#cbcbcb"
       id="polygon225" />
    <polygon
       points="107.934,362.051 108.302,361.406 107.888,360.899 104.524,356.246 "
       fill="#cbcbcb"
       id="polygon227" />
    <circle
       cx="64.715569"
       cy="327.36151"
       r="22.591631"
       fill="#ffffff"
       id="circle229" />
    <polygon
       points="64.376,323.959 66.893,395.409 62.266,395.409 "
       fill="#cbcbcb"
       id="polygon231" />
    <polygon
       points="64.716,339.202 64.172,338.249 64.784,337.5 69.751,330.628 "
       fill="#cbcbcb"
       id="polygon233" />
    <polygon
       points="64.308,346.142 64.852,345.19 64.24,344.441 59.272,337.569 "
       fill="#cbcbcb"
       id="polygon235" />
  </g>
  <g
     inkscape:groupmode="layer"
     id="layer6"
     inkscape:label="Marker"
     style="display:inline">
    <path
       d="m 608.77959,376.37775 c 0,41.88122 -75.83267,135.18 -75.83267,135.18 0,0 -75.83267,-93.29876 -75.83267,-135.18 a 75.83267,75.83267 0 0 1 151.66534,0 z"
       transform="translate(-239.4438,-158.73267)"
       fill="#6c63ff"
       id="path191"
       style="display:inline" />
    <path
       d="m 567.61419,373.08068 a 34.66638,34.66638 0 1 1 -34.66638,-34.66638 34.65047,34.65047 0 0 1 34.66638,34.66638 z"
       transform="translate(-239.4438,-158.73267)"
       fill="#ffffff"
       style="display:inline;isolation:isolate"
       id="path193" />
    <circle
       cx="293.50311"
       cy="387.11459"
       r="20.441851"
       fill="#6c63ff"
       id="circle195"
       style="display:inline" />
  </g>
  <g
     inkscape:groupmode="layer"
     id="layer5"
     inkscape:label="Trees-Right"
     style="display:inline">
    <circle
       cx="559.40271"
       cy="349.8165"
       r="15.2965"
       fill="#ffffff"
       id="circle205" />
    <circle
       cx="525.32104"
       cy="322.76886"
       r="22.591631"
       fill="#ffffff"
       id="circle213" />
    <polygon
       points="632.376,323.959 634.893,395.409 630.266,395.409 "
       fill="#cbcbcb"
       id="polygon215"
       transform="translate(-106.584,1.3039059)" />
    <polygon
       points="674.552,395.409 675.98,347.031 677.685,395.409 "
       fill="#cbcbcb"
       id="polygon207"
       transform="translate(-116.49975,2.5407099)" />
    <polygon
       points="632.716,339.202 632.172,338.249 632.784,337.5 637.751,330.628 "
       fill="#cbcbcb"
       id="polygon217"
       transform="translate(-106.08422,15.390132)" />
    <polygon
       points="632.308,346.142 632.852,345.19 632.24,344.441 627.272,337.569 "
       fill="#cbcbcb"
       id="polygon219"
       transform="translate(-107.39456,18.665998)" />
  </g>
</svg>
