<?xml version="1.0" encoding="UTF-8" standalone="no"?>
<svg
   id="a644d002-dee1-4c60-b6d8-14071a55f848"
   data-name="Layer 1"
   width="616.18085"
   height="616.3855"
   viewBox="0 0 616.18084 616.38549"
   version="1.1"
   sodipodi:docname="undraw_Project_completed_re_pqqq.svg"
   inkscape:version="1.1.1 (c3084ef, 2021-09-22)"
   xmlns:inkscape="http://www.inkscape.org/namespaces/inkscape"
   xmlns:sodipodi="http://sodipodi.sourceforge.net/DTD/sodipodi-0.dtd"
   xmlns="http://www.w3.org/2000/svg"
   xmlns:svg="http://www.w3.org/2000/svg">
  <defs
     id="defs73" />
  <sodipodi:namedview
     id="namedview71"
     pagecolor="#ffffff"
     bordercolor="#666666"
     borderopacity="1.0"
     inkscape:pageshadow="2"
     inkscape:pageopacity="0.0"
     inkscape:pagecheckerboard="0"
     showgrid="false"
     fit-margin-top="0"
     fit-margin-left="0"
     fit-margin-right="0"
     fit-margin-bottom="0"
     inkscape:zoom="0.78834073"
     inkscape:cx="310.14508"
     inkscape:cy="273.9932"
     inkscape:window-width="1366"
     inkscape:window-height="768"
     inkscape:window-x="0"
     inkscape:window-y="0"
     inkscape:window-maximized="0"
     inkscape:current-layer="layer4" />
  <g
     inkscape:groupmode="layer"
     id="layer4"
     inkscape:label="Items"
     transform="translate(0,20)">
    <g
       id="g846"
       transform="matrix(0.92354325,0,0,1,0,-20)">
      <path
         d="M 365,212 H 0 v -84 h 365 z"
         fill="#ffffff"
         id="path40" />
      <path
         d="m 52.67781,155.77439 a 3.55641,3.55641 0 0 0 0,7.11281 h 259.65938 a 3.55641,3.55641 0 0 0 0,-7.11281 z"
         fill="#6c63ff"
         id="path42" />
      <path
         d="m 52.67781,177.11281 a 3.5564129,3.5564129 0 0 0 -0.015,7.11281 h 164.15934 a 3.55641,3.55641 0 1 0 0,-7.11281 z"
         fill="#6c63ff"
         id="path44" />
      <path
         d="M 365,212 H 0 V 128 H 365 Z M 6,206 H 359 V 134 H 6 Z"
         fill="#e5e5e5"
         id="path46" />
    </g>
    <g
       id="g852"
       transform="matrix(0.92354325,0,0,1,0,-20)">
      <path
         d="M 365,340 H 0 v -84 h 365 z"
         fill="#ffffff"
         id="path48" />
      <path
         d="m 52.67781,283.77439 a 3.55641,3.55641 0 0 0 0,7.11281 h 259.65938 a 3.55641,3.55641 0 0 0 0,-7.11281 z"
         fill="#e6e6e6"
         id="path50" />
      <path
         d="m 52.67781,305.11281 a 3.5564129,3.5564129 0 0 0 -0.015,7.11281 h 164.15934 a 3.55641,3.55641 0 1 0 0,-7.11281 z"
         fill="#e6e6e6"
         id="path52" />
      <path
         d="M 365,340 H 0 V 256 H 365 Z M 6,334 H 359 V 262 H 6 Z"
         fill="#e5e5e5"
         id="path54" />
    </g>
    <g
       id="g840"
       transform="matrix(0.92354325,0,0,1,-2.7706297,-20)">
      <path
         d="M 368,84 H 3 V 0 h 365 z"
         fill="#ffffff"
         id="path56" />
      <path
         d="m 55.67781,27.77439 a 3.55641,3.55641 0 0 0 0,7.11281 h 259.65938 a 3.55641,3.55641 0 0 0 0,-7.11281 z"
         fill="#6c63ff"
         id="path58" />
      <path
         d="m 55.67781,49.11281 a 3.5564129,3.5564129 0 0 0 -0.015,7.11281 h 164.15934 a 3.55641,3.55641 0 1 0 0,-7.11281 z"
         fill="#6c63ff"
         id="path60" />
      <path
         d="M 368,84 H 3 V 0 H 368 Z M 9,78 H 362 V 6 H 9 Z"
         fill="#e5e5e5"
         id="path62" />
    </g>
    <g
       id="g858"
       transform="matrix(0.92354325,0,0,1,0,-20)">
      <path
         d="M 365,473.30833 H 0 v -84 h 365 z"
         fill="#ffffff"
         id="path824" />
      <path
         d="m 52.67781,417.08272 a 3.55641,3.55641 0 0 0 0,7.11281 h 259.65938 a 3.55641,3.55641 0 0 0 0,-7.11281 z"
         fill="#6c63ff"
         id="path826" />
      <path
         d="m 52.67781,438.42114 a 3.5564129,3.5564129 0 0 0 -0.015,7.11281 h 164.15934 a 3.55641,3.55641 0 1 0 0,-7.11281 z"
         fill="#6c63ff"
         id="path828" />
      <path
         d="M 365,473.30833 H 0 v -84 h 365 z m -359,-6 h 353 v -72 H 6 Z"
         fill="#e5e5e5"
         id="path830" />
    </g>
  </g>
  <g
     inkscape:groupmode="layer"
     id="layer5"
     inkscape:label="Checks"
     transform="translate(0,20)">
    <circle
       id="a21b076b-2a02-49a5-bb32-17a8ec3aa4f0"
       data-name="Ellipse 44"
       cx="378.31396"
       cy="22"
       r="18.934059"
       fill="#6c63ff" />
    <path
       id="e6e13b85-c0f0-465c-a6f6-5f502d6349d1"
       data-name="Path 395"
       d="m 376.52658,29.22279 a 1.96376,1.96376 0 0 1 -1.1814,-0.39263 l -0.0211,-0.0159 -4.44976,-3.40392 a 1.9774492,1.9774492 0 0 1 2.40618,-3.13864 l 2.88219,2.2102 6.81078,-8.88542 a 1.9766,1.9766 0 0 1 2.7713,-0.36605 l 5.7e-4,4.3e-4 -0.0423,0.0587 0.0434,-0.0587 a 1.979,1.979 0 0 1 0.36562,2.77185 l -8.011,10.44653 a 1.97779,1.97779 0 0 1 -1.57284,0.77116 z"
       fill="#ffffff" />
    <circle
       id="a589868e-34c5-408c-9ae2-7552629e8089"
       data-name="Ellipse 44"
       cx="378.31396"
       cy="150"
       r="18.934059"
       fill="#6c63ff" />
    <path
       id="e165961b-e395-421d-ab84-b3c9bf16c3b4"
       data-name="Path 395"
       d="m 376.53507,157.22279 a 1.96376,1.96376 0 0 1 -1.1814,-0.39263 l -0.0211,-0.0159 -4.44976,-3.40392 a 1.9774492,1.9774492 0 1 1 2.40618,-3.13864 l 2.88219,2.2102 6.81078,-8.88542 a 1.9766,1.9766 0 0 1 2.7713,-0.366 l 5.7e-4,4.3e-4 -0.0423,0.0587 0.0434,-0.0587 a 1.979,1.979 0 0 1 0.36562,2.77185 l -8.011,10.44653 a 1.97779,1.97779 0 0 1 -1.57284,0.77116 z"
       fill="#ffffff" />
    <circle
       id="circle832"
       data-name="Ellipse 44"
       cx="378.31396"
       cy="411.30832"
       r="18.934059"
       fill="#6c63ff" />
    <path
       id="path834"
       data-name="Path 395"
       d="m 376.53507,418.53112 a 1.96376,1.96376 0 0 1 -1.1814,-0.39263 l -0.0211,-0.0159 -4.44976,-3.40392 a 1.9774492,1.9774492 0 1 1 2.40618,-3.13864 l 2.88219,2.2102 6.81078,-8.88542 a 1.9766,1.9766 0 0 1 2.7713,-0.366 l 5.7e-4,4.3e-4 -0.0423,0.0587 0.0434,-0.0587 a 1.979,1.979 0 0 1 0.36562,2.77185 l -8.011,10.44653 a 1.97779,1.97779 0 0 1 -1.57284,0.77116 z"
       fill="#ffffff" />
  </g>
  <g
     inkscape:groupmode="layer"
     id="layer6"
     inkscape:label="Character"
     transform="translate(0,20)">
    <path
       d="m 435.86417,368.95905 a 10.74577,10.74577 0 0 1 12.20913,-11.06524 l 17.341,-34.02233 9.79852,17.25595 -17.96956,29.66266 a 10.804,10.804 0 0 1 -21.37913,-1.831 z"
       fill="#ffb7b7"
       id="path6" />
    <polygon
       points="544.627,530.702 564.712,530.703 564.71,583.194 551.101,583.193 "
       fill="#ffb7b7"
       id="polygon8"
       transform="translate(-48)" />
    <path
       d="m 520.18018,596.38548 -43.8805,-0.002 v -0.555 a 17.08042,17.08042 0 0 1 17.07951,-17.07924 h 0.001 l 26.80072,10e-4 z"
       fill="#2f2e41"
       id="path10" />
    <polygon
       points="618.4,530.702 638.485,530.703 638.483,583.194 624.874,583.193 "
       fill="#ffb7b7"
       id="polygon12"
       transform="translate(-48)" />
    <path
       d="m 593.95349,596.38548 -43.88051,-0.002 v -0.555 a 17.08044,17.08044 0 0 1 17.07952,-17.07924 h 10e-4 l 26.80072,10e-4 z"
       fill="#2f2e41"
       id="path14" />
    <path
       d="m 456.76677,339.3487 -5.94091,9.90151 c 0,0 9.9015,0 11.88178,14.85223 l 7.92119,-9.9015 z"
       fill="#e5e5e5"
       id="path16" />
    <path
       d="m 560.73245,318.55555 c 0,0 15.84241,41.58627 18.81283,67.33016 2.97042,25.74389 7.92119,94.06416 7.92119,94.06416 l 9.90154,88.12335 -27.72419,3.96059 -11.88182,-89.11344 -26.734,-88.12333 -5.94091,88.12329 -4.95073,80.20212 -25.74387,0.99014 -1.98032,-83.17258 -10.89164,-105.946 5.94091,-50.49761 z"
       fill="#2f2e41"
       id="path18" />
    <circle
       cx="516.17572"
       cy="168.16435"
       r="24.75374"
       fill="#ffb7b7"
       id="circle20" />
    <polygon
       points="559.936,205.636 589.424,192.312 599.326,199.242 612.198,328.952 531.996,330.932 542.888,240.829 552.789,215.085 "
       fill="#e5e5e5"
       id="polygon22"
       transform="translate(-48)" />
    <path
       d="m 543.40483,285.38554 3.02985,-89.567 c 0,0 5.88152,0.4535 7.86179,3.424 1.98027,2.9705 34.65524,8.91134 34.65524,8.91134 l -5.94091,92.08391 c 0,0 24.75374,73.27106 15.84242,77.23167 -8.91132,3.96061 -24.75374,2.97045 -24.75374,2.97045 z"
       fill="#2f2e41"
       id="path24" />
    <path
       d="m 495.38263,273.99881 10.50378,-60.3646 -23.37578,15.80787 5.94093,43.56662 -4.95074,29.70449 c 0,0 -18.81286,82.18242 -12.872,85.15287 5.94086,2.97045 12.872,0 12.872,0 l 11.88181,-83.17261 z"
       fill="#2f2e41"
       id="path26" />
    <path
       d="m 489.4417,227.46179 -6.93107,1.98033 -2.97046,39.606 -4.95073,34.65524 -23.76358,42.57634 c 0,0 11.88178,-7.92118 16.83255,14.85226 l 26.17066,-45.56388 z"
       fill="#2f2e41"
       id="path28" />
    <path
       d="m 536.89838,144.57938 4.66788,-1.86876 c 0,0 -9.76008,-10.74534 -23.33948,-9.81092 l 3.81928,-4.20474 c 0,0 -9.3358,-3.73747 -17.82284,6.07344 -4.4615,5.15737 -9.62347,11.21962 -12.84142,18.04866 h -4.999 l 2.08639,4.594 -7.30239,4.594 7.49518,-0.82518 a 25.67158,25.67158 0 0 0 -0.20341,7.62 9.85929,9.85929 0 0 0 3.61036,6.44971 v 0 c 0,0 5.789,-11.98274 5.789,-13.8515 v 4.67188 c 0,0 4.66788,-4.20468 4.66788,-7.00779 l 2.5461,3.27032 1.273,-5.13911 15.70106,5.13911 -2.5461,-4.20468 9.76012,1.40156 -3.81928,-5.13911 15.11132,21.22112 c 0,0 8.6526,-24.02422 -3.65365,-31.03201 z"
       fill="#2f2e41"
       id="path30" />
    <path
       d="m 543.29952,360.83894 a 10.74579,10.74579 0 0 1 14.12491,-8.48465 l 23.61573,-30.0088 6.26232,18.82982 -23.386,25.61 a 10.804,10.804 0 0 1 -20.617,-5.94642 z"
       fill="#ffb7b7"
       id="path32" />
    <polygon
       points="610.713,340.339 615.663,331.428 631.506,350.24 622.595,361.132 "
       fill="#e5e5e5"
       id="polygon34"
       transform="translate(-48)" />
    <path
       d="m 581.52563,211.61939 7.92118,-3.96059 c 0,0 5.94091,7.9212 6.93105,14.85225 0.99014,6.93105 5.94091,15.84238 5.94091,20.79313 0,4.95075 13.8621,51.48777 13.8621,51.48777 l -31.68482,64.35975 c 0,0 -6.93105,-23.76358 -21.78328,-25.7439 l 24.75374,-34.65528 -13.8621,-24.75371 z"
       fill="#2f2e41"
       id="path36" />
    <circle
       id="b5ebad9a-150e-4d35-a0fa-e0e6655123db"
       data-name="Ellipse 44"
       cx="436.31396"
       cy="347.84558"
       r="18.934059"
       fill="#6c63ff" />
    <path
       id="a3d97315-c3ee-404f-9bfd-8b2853817976"
       data-name="Path 395"
       d="m 434.43771,355.06837 a 1.96375,1.96375 0 0 1 -1.1814,-0.39262 l -0.0211,-0.0159 -4.44976,-3.40392 a 1.97744,1.97744 0 1 1 2.40623,-3.13865 l 2.88219,2.2102 6.81078,-8.88542 a 1.97662,1.97662 0 0 1 2.7713,-0.366 l 5.7e-4,4.3e-4 -0.0423,0.0587 0.0434,-0.0587 a 1.979,1.979 0 0 1 0.36562,2.77185 l -8.011,10.44654 a 1.97782,1.97782 0 0 1 -1.57284,0.77116 z"
       fill="#ffffff" />
  </g>
</svg>
