<?xml version="1.0" encoding="UTF-8" standalone="no"?>
<svg
   id="bb328e6d-602c-4acd-b0f5-b204c203e1c3"
   data-name="Layer 1"
   width="628.40167"
   height="627.8548"
   viewBox="0 0 628.40166 627.8548"
   version="1.1"
   sodipodi:docname="undraw_visual_data_re_mxxo.svg"
   inkscape:version="1.1.1 (c3084ef, 2021-09-22)"
   xmlns:inkscape="http://www.inkscape.org/namespaces/inkscape"
   xmlns:sodipodi="http://sodipodi.sourceforge.net/DTD/sodipodi-0.dtd"
   xmlns="http://www.w3.org/2000/svg"
   xmlns:svg="http://www.w3.org/2000/svg">
  <defs
     id="defs110" />
  <sodipodi:namedview
     id="namedview108"
     pagecolor="#ffffff"
     bordercolor="#666666"
     borderopacity="1.0"
     inkscape:pageshadow="2"
     inkscape:pageopacity="0.0"
     inkscape:pagecheckerboard="0"
     showgrid="false"
     fit-margin-top="0"
     fit-margin-left="0"
     fit-margin-right="0"
     fit-margin-bottom="0"
     inkscape:zoom="0.62253636"
     inkscape:cx="214.44531"
     inkscape:cy="350.18035"
     inkscape:window-width="1366"
     inkscape:window-height="768"
     inkscape:window-x="0"
     inkscape:window-y="0"
     inkscape:window-maximized="0"
     inkscape:current-layer="layer2" />
  <g
     inkscape:groupmode="layer"
     id="layer1"
     inkscape:label="Bars"
     transform="translate(-17.33101,-60.045517)">
    <path
       id="ae5c11dc-7e77-468a-a39f-cc8da6ee1565"
       data-name="Path 1495"
       d="m 121.33201,684.811 v -379.81 a 8.82,8.82 0 0 1 8.82,-8.82 h 39.36 a 8.82,8.82 0 0 1 8.82,8.82 v 0 380.8 z"
       fill="#3f3d56" />
    <path
       id="bc696f83-47b6-45c9-967f-bb64f1f3bee5"
       data-name="Path 1496"
       d="m 231.33201,685.801 v -302 a 8.82,8.82 0 0 1 8.82,-8.82 h 39.36 a 8.82,8.82 0 0 1 8.82,8.82 v 0 301.35 z"
       fill="#3f3d56" />
    <path
       id="b3465432-03e0-48eb-8016-b04aa244e72c"
       data-name="Path 1513"
       d="M 459.33201,684.655 V 246.901 c 0,-5.614 3.949,-10.166 8.82,-10.166 h 39.36 c 4.871,0 8.82,4.551 8.82,10.166 v 438.9 z"
       fill="#3f3d56" />
    <path
       id="ef6ae9ea-be37-4bc6-b1be-067860dc7e9d"
       data-name="Path 1514"
       d="M 17.33101,685.25 V 473.909 c 0,-2.71 3.949,-4.908 8.82,-4.908 h 39.36 c 4.871,0 8.82,2.2 8.82,4.908 v 211.892 z"
       fill="#3f3d56" />
    <path
       id="b32730d1-ac43-40b1-a176-73e18bf362e5"
       data-name="Path 1515"
       d="m 345.33101,684.506 v -496.77 c 0,-6.371 3.949,-11.536 8.82,-11.536 h 39.36 c 4.871,0 8.82,5.165 8.82,11.536 v 498.065 z"
       fill="#6c63ff" />
  </g>
  <g
     inkscape:groupmode="layer"
     id="layer2"
     inkscape:label="LineChart"
     transform="translate(-17.33101,-60.045517)">
    <path
       d="m 46.33101,326.99984 c -2.594206,-5.7e-4 -3.964649,-3.07098 -2.23278,-5.00244 L 145.62674,194.0045 256.34695,254.7032 371.59726,83.172725 493.04619,176.29503 c 3.09299,2.54157 -0.72001,7.17438 -3.813,4.63281 L 373.23984,92.295775 258.56714,262.83113 146.88319,201.5914 48.56561,326.00229 c -0.568569,0.63591 -1.381574,0.99885 -2.2346,0.99755 z"
       fill="#3f3d56"
       id="path85"
       sodipodi:nodetypes="cccccccccccc" />
    <circle
       id="a1f8771a-4bf9-4603-9747-6ae739e4ad47"
       data-name="Ellipse 300"
       cx="45.832001"
       cy="324"
       r="28"
       fill="#6c63ff" />
    <circle
       id="ffdbdf53-78c2-412f-9ede-372406e5d245"
       data-name="Ellipse 301"
       cx="149.832"
       cy="207"
       r="28"
       fill="#cccccc" />
    <circle
       id="b7cff929-f00d-4f86-944c-e500b6ceb6ad"
       data-name="Ellipse 302"
       cx="259.10236"
       cy="256.38089"
       r="28"
       fill="#e6e6e6" />
    <circle
       id="eabc0b76-6faa-4fa0-934c-daff28b491dd"
       data-name="Ellipse 303"
       cx="372.87619"
       cy="88.045517"
       r="28"
       fill="#6c63ff" />
  </g>
  <g
     inkscape:groupmode="layer"
     id="layer3"
     inkscape:label="Character"
     transform="translate(-17.33101,-60.045517)">
    <polygon
       points="755.994,674.556 743.734,674.555 737.902,627.268 755.996,627.268 "
       fill="#9e616a"
       id="polygon75"
       transform="translate(-114.31658,1.4603015)" />
    <path
       d="m 644.8041,687.9003 -39.53076,-10e-4 v -0.5 a 15.3873,15.3873 0 0 1 15.38647,-15.38623 h 10e-4 l 24.144,10e-4 z"
       fill="#2f2e41"
       id="path77" />
    <polygon
       points="708.994,674.556 696.734,674.555 690.902,627.268 708.996,627.268 "
       fill="#9e616a"
       id="polygon79"
       transform="translate(-114.31658,1.4603015)" />
    <path
       d="m 597.8041,687.9003 -39.53076,-10e-4 v -0.5 a 15.3873,15.3873 0 0 1 15.38647,-15.38623 h 10e-4 l 24.144,10e-4 z"
       fill="#2f2e41"
       id="path81" />
    <circle
       id="a7ca0488-8ee6-49e2-b245-2872b84c042e"
       data-name="Ellipse 304"
       cx="603.51538"
       cy="237.9953"
       r="28"
       fill="#6c63ff" />
    <path
       id="b579ef19-595a-43de-9b6d-0ead8268ca48"
       data-name="Path 1507"
       d="m 593.61543,456.1163 c 10.47981,1.26236 37.279,-8.29806 38.73146,6.24641 13.7938,40.605 13.38448,196.25632 13.38448,196.25632 l -21,1 c 0,0 -16.78094,-123.67439 -24.71581,-150.13285 -3.98187,32.159 -3.28421,155.13285 -3.28421,155.13285 l -19,1 c 0,0 -17.04317,-104.7174 -17.14045,-135.45308 -2.07126,-22.51351 3.00876,-55.87593 0.83463,-77.63979 a 83.21836,83.21836 0 0 0 32.19,3.59 z"
       fill="#3f3d56" />
    <path
       id="ac7870c5-efcc-4c4b-b17f-07e0bff4d096"
       data-name="Path 1508"
       d="m 557.96543,338.3163 a 130.65716,130.65716 0 0 0 -15.31,-24.17 38.322,38.322 0 0 1 -3.4,-4.64 c -2.15,-3.73 -2.79,-8.11 -4.15,-12.19 -3.8,-11.44 -13.28,-20.63 -15.59,-32.46 -0.84,-4.3 -7.93567,8.19791 -6.07,13.53 3.33,9.65 3.76,19.87 8,29.19 4.24,9.32 9.22,18.26 12.88,27.79 2.08,5.41 3.74,11 6.79,16 3.05,5 7.81,9.19 13.56,9.94 a 33.44983,33.44983 0 0 1 1.63013,-10.68 c 1.24987,-3.94 3.46987,-8.58 1.65987,-12.31 z"
       fill="#9e616a" />
    <path
       id="be4b35b3-6955-40b7-9549-45fdba6a2930"
       data-name="Path 1509"
       d="m 620.87543,344.7963 a 55.25867,55.25867 0 0 1 3.25,-20.78 c 0.92,-2.55 2,-5.14 1.91,-7.85 -0.13,-2.52 -1.33,-4.83 -2.42,-7.11 -3.76,-7.85 -6.4,-16.17 -9,-24.47 l -5,-15.65 c -1.63018,-1.19543 7.89,-1.61 9.92,1.2 6.64,9.22 11.67,19.81 16.93005,29.88 a 50.57714,50.57714 0 0 1 3.42,7.49 41.18565,41.18565 0 0 1 1.8,12.94 c 0,8.19 -1.07995,16.35 -2.19995,24.47 -0.71,5.09 -1.64,10.63 -5.49,14 -4.00017,-5.12 -8.0201,-10.12 -13.1201,-14.12 z"
       fill="#9e616a" />
    <circle
       id="a7d383a2-21d6-4551-be8a-8c82a5e576cb"
       data-name="Ellipse 307"
       cx="594.43536"
       cy="315.94431"
       r="20.75"
       fill="#9e616a" />
    <path
       id="fb091cb1-8ad4-4d57-b74d-c940c723d6bf"
       data-name="Path 1512"
       d="m 577.56729,295.2423 a 3.602,3.602 0 0 1 0.75956,-3.72335 c 0.51814,-0.40831 1.20624,-0.56062 1.7617,-0.95027 a 7.602,7.602 0 0 0 1.89952,-2.40314 10.31516,10.31516 0 0 1 12.909,-3.27672 c 3.42909,1.79484 5.49957,5.38869 8.54935,7.80841 1.54823,1.25389 3.34408,2.18449 4.90161,3.43838 a 20.14613,20.14613 0 0 1 6.35451,10.27787 58.31035,58.31035 0 0 1 1.7617,12.12454 10.90476,10.90476 0 0 1 -0.142,3.68607 10.31659,10.31659 0 0 1 -1.39586,2.84979 c -3.13478,4.7493 -7.26645,9.0623 -12.4437,11.5131 -5.17725,2.4508 -11.47477,2.84979 -16.58055,0.285 a 2.84975,2.84975 0 0 1 -1.27259,-1.01658 3.65791,3.65791 0 0 1 -0.199,-2.19382 15.01763,15.01763 0 0 0 -1.65284,-8.40634 c -0.95027,-1.89951 -2.37516,-3.53373 -3.13479,-5.49956 a 19.15971,19.15971 0 0 1 -0.89328,-6.81979 c -0.0901,-5.9815 0.31611,-11.93703 -1.18234,-17.69359 z"
       fill="#2d293d" />
    <circle
       cx="512.86584"
       cy="266.82587"
       r="9"
       fill="#a0616a"
       id="circle101" />
    <circle
       cx="612.86584"
       cy="262.82587"
       r="9"
       fill="#a0616a"
       id="circle103" />
    <path
       d="m 634.7355,374.2363 c 0.87817,-0.80359 8.0376,-42.67377 7.99585,-43.61731 -0.1106,-5.15845 -15.85,-11.05 -19,-9 -2.97187,1.93408 -8.14667,24.12415 -11.477,28.16529 l -3.523,-6.16529 h -28 l -1.69708,3.15174 c -3.674,-2.21338 -6.97907,-4.25409 -8.15784,-4.92933 a 5.30006,5.30006 0 0 0 -1.311,-0.64495 20.31093,20.31093 0 0 1 -8,-3.76 c -2.3,-1.77 -12.97412,-20.30744 -15.8341,-19.81745 -3.23,0.54 -14.1247,9.96 -14,19 1.37152,-0.0293 19.21374,35.64765 19.46411,36.97736 1.37,5.62 5.89392,87.57995 7.35394,91.4 6.726,-0.65 1.416,-1.81 7.926,0 7.01,1.95 14.41,-0.16 21.64,-0.94 a 83.11362,83.11362 0 0 1 9.06,-0.4 c 11,0.05 26.7,0.66 37.35,3.39 0.0601,-6.98 -6.06994,-22.08 -8.34,-28.67 a 19.24793,19.24793 0 0 1 0.03,-5.94 c 0.29014,-2.40998 6.14561,-55.53528 8.52012,-58.20006 z"
       fill="#e6e6e6"
       id="path105" />
  </g>
</svg>
