<?xml version="1.0" encoding="UTF-8" standalone="no"?>
<svg
   id="aab721b6-4aa1-4d02-a3e3-167256aa258c"
   data-name="Layer 1"
   width="489.91016"
   height="489.4808"
   viewBox="0 0 489.91016 489.48081"
   version="1.1"
   sodipodi:docname="undraw_design_components_9vy6.svg"
   inkscape:version="1.1.1 (c3084ef, 2021-09-22)"
   xmlns:inkscape="http://www.inkscape.org/namespaces/inkscape"
   xmlns:sodipodi="http://sodipodi.sourceforge.net/DTD/sodipodi-0.dtd"
   xmlns="http://www.w3.org/2000/svg"
   xmlns:svg="http://www.w3.org/2000/svg">
  <defs
     id="defs185" />
  <sodipodi:namedview
     id="namedview183"
     pagecolor="#ffffff"
     bordercolor="#666666"
     borderopacity="1.0"
     inkscape:pageshadow="2"
     inkscape:pageopacity="0.0"
     inkscape:pagecheckerboard="0"
     showgrid="false"
     fit-margin-top="0"
     fit-margin-left="0"
     fit-margin-right="0"
     fit-margin-bottom="0"
     inkscape:zoom="0.59563802"
     inkscape:cx="326.5406"
     inkscape:cy="280.37162"
     inkscape:window-width="1366"
     inkscape:window-height="768"
     inkscape:window-x="0"
     inkscape:window-y="0"
     inkscape:window-maximized="0"
     inkscape:current-layer="layer2" />
  <g
     inkscape:groupmode="layer"
     id="layer1"
     inkscape:label="Background"
     style="display:inline"
     transform="translate(1.4567828e-4,3.0402352e-4)">
    <path
       d="M 103.51095,0 A 102.9706,205.979 0 0 0 64.675799,15.06689 c -0.496734,0.40723 -0.995422,0.81641 -1.493866,1.23486 A 103.37133,206.78061 0 0 0 -7.2852168e-5,207.06005 v 225.94 a 4.5042531,9.01016 0 0 0 4.499174052168,9 l 0.089339,0.0156 C 91.30592,473.51762 175.61004,489.48051 255.22846,489.48051 q 1.79045,0 3.57747,-0.0107 c 78.26298,-0.47656 154.46871,-16.43945 226.49992,-47.44726 l 0.10498,-0.0225 a 4.5040931,9.00984 0 0 0 4.49917,-9 v -424 a 4.5042481,9.01015 0 0 0 -4.49917,-9 z"
       fill="#6c63ff"
       id="path9"
       style="stroke-width:0.707042" />
  </g>
  <g
     inkscape:groupmode="layer"
     id="layer2"
     inkscape:label="Foreground"
     transform="translate(1.4567828e-4,3.0402352e-4)">
    <g
       opacity="0.4"
       id="g146">
      <circle
         cx="54.023899"
         cy="374.76553"
         r="5.02391"
         fill="#ffffff"
         id="circle84" />
      <circle
         cx="54.023899"
         cy="353.83258"
         r="5.02391"
         fill="#ffffff"
         id="circle86" />
      <circle
         cx="54.023899"
         cy="332.8996"
         r="5.02391"
         fill="#ffffff"
         id="circle88" />
      <circle
         cx="54.023899"
         cy="311.96664"
         r="5.02391"
         fill="#ffffff"
         id="circle90" />
      <circle
         cx="54.023899"
         cy="291.03369"
         r="5.02391"
         fill="#ffffff"
         id="circle92" />
      <circle
         cx="54.023899"
         cy="270.10074"
         r="5.02391"
         fill="#ffffff"
         id="circle94" />
      <circle
         cx="54.023899"
         cy="249.16777"
         r="5.02391"
         fill="#ffffff"
         id="circle96" />
      <circle
         cx="69.932953"
         cy="374.76553"
         r="5.02391"
         fill="#ffffff"
         id="circle98" />
      <circle
         cx="69.932953"
         cy="353.83258"
         r="5.02391"
         fill="#ffffff"
         id="circle100" />
      <circle
         cx="69.932953"
         cy="332.8996"
         r="5.02391"
         fill="#ffffff"
         id="circle102" />
      <circle
         cx="69.932953"
         cy="311.96664"
         r="5.02391"
         fill="#ffffff"
         id="circle104" />
      <circle
         cx="69.932953"
         cy="291.03369"
         r="5.02391"
         fill="#ffffff"
         id="circle106" />
      <circle
         cx="69.932953"
         cy="270.10074"
         r="5.02391"
         fill="#ffffff"
         id="circle108" />
      <circle
         cx="69.932953"
         cy="249.16777"
         r="5.02391"
         fill="#ffffff"
         id="circle110" />
      <circle
         cx="85.842003"
         cy="374.76553"
         r="5.02391"
         fill="#ffffff"
         id="circle112" />
      <circle
         cx="85.842003"
         cy="353.83258"
         r="5.02391"
         fill="#ffffff"
         id="circle114" />
      <circle
         cx="85.842003"
         cy="332.8996"
         r="5.02391"
         fill="#ffffff"
         id="circle116" />
      <circle
         cx="85.842003"
         cy="311.96664"
         r="5.02391"
         fill="#ffffff"
         id="circle118" />
      <circle
         cx="85.842003"
         cy="291.03369"
         r="5.02391"
         fill="#ffffff"
         id="circle120" />
      <circle
         cx="85.842003"
         cy="270.10074"
         r="5.02391"
         fill="#ffffff"
         id="circle122" />
      <circle
         cx="85.842003"
         cy="249.16777"
         r="5.02391"
         fill="#ffffff"
         id="circle124" />
      <circle
         cx="101.75105"
         cy="374.76553"
         r="5.02391"
         fill="#ffffff"
         id="circle126" />
      <circle
         cx="101.75105"
         cy="353.83258"
         r="5.02391"
         fill="#ffffff"
         id="circle128" />
      <circle
         cx="117.6601"
         cy="374.76553"
         r="5.02391"
         fill="#ffffff"
         id="circle130" />
      <circle
         cx="117.6601"
         cy="353.83258"
         r="5.02391"
         fill="#ffffff"
         id="circle132" />
      <circle
         cx="117.6601"
         cy="332.8996"
         r="5.02391"
         fill="#ffffff"
         id="circle134" />
      <circle
         cx="101.75105"
         cy="332.8996"
         r="5.02391"
         fill="#ffffff"
         id="circle136" />
      <circle
         cx="101.75105"
         cy="311.96664"
         r="5.02391"
         fill="#ffffff"
         id="circle138" />
      <circle
         cx="101.75105"
         cy="291.03369"
         r="5.02391"
         fill="#ffffff"
         id="circle140" />
      <circle
         cx="101.75105"
         cy="270.10074"
         r="5.02391"
         fill="#ffffff"
         id="circle142" />
      <circle
         cx="101.75105"
         cy="249.16777"
         r="5.02391"
         fill="#ffffff"
         id="circle144" />
    </g>
    <path
       d="M 445.66201,33.00223 H 162.72518 a 5.2464815,6.18856 0 0 0 -5.24117,6.18237 v 285.3832 a 5.246473,6.18855 0 0 0 5.24117,6.18236 h 282.93683 a 5.2465154,6.1886 0 0 0 5.24124,-6.18236 V 39.18457 a 5.2465239,6.18861 0 0 0 -5.24124,-6.18234 z m 3.14082,291.56557 a 3.1521227,3.71813 0 0 1 -3.14082,3.71637 H 162.72518 a 3.1457983,3.71067 0 0 1 -3.14075,-3.71637 V 39.18457 a 3.1457983,3.71067 0 0 1 3.14075,-3.71637 h 282.93683 a 3.1521227,3.71813 0 0 1 3.14082,3.71637 z"
       fill="#3f3d56"
       id="path148"
       style="stroke-width:0.920745" />
    <path
       d="m 228.03419,280.00632 c 0,0.43995 -0.01,0.87989 -0.0295,1.30825 a 21.342329,25.17464 0 0 1 -42.62651,0 c -0.0196,-0.42836 -0.0294,-0.8683 -0.0294,-1.30825 a 21.342702,25.17508 0 1 1 42.6854,0 z"
       fill="#ffffff"
       id="path150"
       style="stroke-width:0.920745" />
    <path
       d="M 423.67646,263.21907 H 255.97745 a 3.5579422,4.19682 0 0 0 0,8.39363 h 167.69901 a 3.5579422,4.19682 0 0 0 0,-8.39363 z"
       fill="#3f3d56"
       id="path152"
       style="stroke-width:0.920745" />
    <path
       d="m 328.1373,288.39994 h -72.15985 a 3.5530081,4.191 0 0 0 0,8.382 h 72.15985 a 3.5530081,4.191 0 1 0 0,-8.382 z"
       fill="#ffffff"
       id="path154"
       style="stroke-width:0.920745" />
    <path
       d="M 434.61267,223.58105 H 208.49108 a 5.799045,8.559 0 0 1 -5.79215,-8.5498 V 68.56933 a 5.7989637,8.55888 0 0 1 5.79215,-8.54931 h 226.12159 a 5.7989637,8.55888 0 0 1 5.79215,8.54931 v 146.4619 a 5.799045,8.559 0 0 1 -5.79215,8.54982 z M 208.49108,63.02002 a 3.7639183,5.55529 0 0 0 -3.75953,5.54931 v 146.4619 a 3.7642096,5.55572 0 0 0 3.75953,5.5498 h 226.12159 a 3.7642096,5.55572 0 0 0 3.75954,-5.5498 V 68.56933 a 3.7639183,5.55529 0 0 0 -3.75954,-5.54931 z"
       fill="#ffffff"
       id="path156"
       style="stroke-width:0.823127" />
    <path
       d="m 240.56692,115.56537 a 3.5157776,4.19591 0 1 0 0,8.39182 h 165.74394 a 3.5157776,4.19591 0 1 0 0,-8.39182 z"
       fill="#ffffff"
       id="path158"
       style="stroke-width:0.915373" />
    <path
       d="m 240.56692,90.46317 a 3.5157776,4.19591 0 1 0 0,8.39182 h 165.74394 a 3.5157776,4.19591 0 1 0 0,-8.39182 z"
       fill="#ffffff"
       id="path158-6"
       style="stroke-width:0.915373" />
    <path
       d="m 240.56884,140.66757 a 3.5176935,4.195915 0 0 0 0,8.39183 h 165.83407 a 3.5176976,4.19592 0 0 0 0,-8.39183 z"
       fill="#ffffff"
       id="path160"
       style="stroke-width:0.915621" />
    <path
       d="m 239.89403,165.76978 a 2.8428905,4.195915 0 0 0 0,8.39183 h 57.67005 a 2.8428939,4.19592 0 0 0 0,-8.39183 z"
       fill="#ffffff"
       id="path162"
       style="stroke-width:0.823127" />
    <path
       d="M 405.18736,433.32057 H 203.19991 a 3.7449011,4.41735 0 0 1 -3.7405,-4.41216 V 369.807 a 3.7449011,4.41735 0 0 1 3.7405,-4.41216 h 201.98745 a 3.7449011,4.41735 0 0 1 3.7405,4.41216 v 59.10141 a 3.7449011,4.41735 0 0 1 -3.7405,4.41216 z M 203.19991,367.1597 a 2.2467541,2.65019 0 0 0 -2.24431,2.6473 v 59.10141 a 2.2467541,2.65019 0 0 0 2.24431,2.64729 h 201.98745 a 2.2467541,2.65019 0 0 0 2.24429,-2.64729 V 369.807 a 2.2467541,2.65019 0 0 0 -2.24429,-2.6473 z"
       fill="#3f3d56"
       id="path166"
       style="stroke-width:0.920745" />
    <circle
       cx="248.42912"
       cy="397.08997"
       r="17.972811"
       fill="#ffffff"
       id="circle168" />
    <path
       d="m 289.04793,385.1081 a 2.1072621,2.99547 0 1 0 0,5.99093 h 99.34229 a 2.1072585,2.995465 0 1 0 0,-5.99093 z"
       fill="#ffffff"
       id="path170"
       style="stroke-width:0.838739" />
    <path
       d="m 289.10764,403.08091 a 2.1668638,2.99547 0 1 0 0,5.99093 h 43.95637 a 2.1668601,2.995465 0 1 0 0,-5.99093 z"
       fill="#ffffff"
       id="path172"
       style="stroke-width:0.850518" />
    <path
       d="M 25.320821,86.767198 H 131.2131 a 4.41735,4.41735 0 0 1 4.41216,4.41216 V 201.46183 a 4.41735,4.41735 0 0 1 -4.41216,4.41216 H 25.320821 a 4.41736,4.41736 0 0 1 -4.41217,-4.41216 V 91.179358 a 4.41736,4.41736 0 0 1 4.41217,-4.41216 z M 131.2131,204.10912 a 2.65019,2.65019 0 0 0 2.6473,-2.64729 V 91.179358 a 2.6502,2.6502 0 0 0 -2.6473,-2.6473 H 25.320821 a 2.65019,2.65019 0 0 0 -2.6473,2.6473 V 201.46183 a 2.65019,2.65019 0 0 0 2.6473,2.64729 z"
       fill="#3f3d56"
       id="path174" />
    <path
       d="m 108.64956,183.13174 a 2.99547,2.99547 0 0 0 0,-5.99094 H 47.884321 a 2.99547,2.99547 0 0 0 0,5.99094 z"
       fill="#ffffff"
       id="path176" />
    <path
       d="m 108.64956,165.48309 a 2.99547,2.99547 0 1 0 0,-5.99093 H 47.884321 a 2.99547,2.99547 0 1 0 0,5.99093 z"
       fill="#ffffff"
       id="path178" />
    <path
       d="m 78.266741,109.50945 a 18.85509,18.85509 0 1 1 -18.85509,18.85509 18.87645,18.87645 0 0 1 18.85509,-18.85509 z"
       fill="#ffffff"
       id="path180" />
  </g>
</svg>
