<?xml version="1.0" encoding="UTF-8" standalone="no"?>
<svg
   id="a9896d22-892d-48ad-9f7b-72810dca365e"
   data-name="Layer 1"
   width="618.15894"
   height="611.97205"
   viewBox="0 0 618.15892 611.97202"
   version="1.1"
   sodipodi:docname="undraw_Source_code_re_wd9m.svg"
   inkscape:version="1.1.1 (c3084ef, 2021-09-22)"
   xmlns:inkscape="http://www.inkscape.org/namespaces/inkscape"
   xmlns:sodipodi="http://sodipodi.sourceforge.net/DTD/sodipodi-0.dtd"
   xmlns="http://www.w3.org/2000/svg"
   xmlns:svg="http://www.w3.org/2000/svg">
  <defs
     id="defs278" />
  <sodipodi:namedview
     id="namedview276"
     pagecolor="#ffffff"
     bordercolor="#666666"
     borderopacity="1.0"
     inkscape:pageshadow="2"
     inkscape:pageopacity="0.0"
     inkscape:pagecheckerboard="0"
     showgrid="false"
     fit-margin-top="0"
     fit-margin-left="0"
     fit-margin-right="0"
     fit-margin-bottom="0"
     inkscape:zoom="0.819833"
     inkscape:cx="218.94703"
     inkscape:cy="167.1072"
     inkscape:window-width="1366"
     inkscape:window-height="768"
     inkscape:window-x="0"
     inkscape:window-y="0"
     inkscape:window-maximized="0"
     inkscape:current-layer="layer1" />
  <g
     inkscape:groupmode="layer"
     id="layer1"
     inkscape:label="SpeechBubble"
     style="display:inline">
    <path
       d="m 23.313806,542.21093 c -7.517863,-31.83013 -8.133297,-68.00288 4.571994,-97.53322 5.40107,-12.55342 12.99214,-23.39348 22.30258,-30.47957 10.73956,-8.17377 23.13691,-10.84743 35.26529,-11.21577 26.37225,-0.80093 52.56491,7.96861 78.93954,3.43511 11.83328,-2.034 23.63687,-6.59766 33.78023,-15.44686 8.77026,-7.6513 16.38253,-18.35818 20.87509,-31.34346 a 41.665147,57.35985 0 0 0 2.79013,-39.85408 c -2.49267,-12.5926 -8.35953,-24.36692 -16.93839,-30.39615 -7.79467,-5.47809 -17.3631,-5.62338 -25.41742,-1.09256 -8.66447,4.874 -14.90317,14.95582 -16.23034,27.85935 -1.65559,16.09681 3.60912,32.023 9.46979,45.49663 5.64117,12.969 12.47996,25.14116 20.78963,35.08313 8.04891,9.63 17.54025,17.221 27.97987,20.59383 9.90426,3.19982 20.58639,2.91707 30.21396,-1.80915 a 42.976702,59.16545 0 0 0 23.26121,-27.39186 c 5.6359,-14.0332 7.60357,-30.247 7.41002,-46.1326 -0.2286,-18.76085 -3.10471,-37.33339 -5.67193,-55.69116 q -3.90563,-27.92843 -8.3944,-55.69428 -2.18764,-13.53414 -4.51333,-27.02494 c -0.32343,-1.87776 -2.42517,-1.08278 -2.10131,0.79752 6.16572,35.79721 11.92979,71.8802 16.30357,108.18369 2.07615,17.23257 3.37644,35.10614 0.77321,52.37342 -2.19522,14.5609 -7.12189,28.6773 -15.5479,38.31105 -16.07913,18.38381 -40.06243,16.05614 -57.27173,2.18335 -9.28102,-7.48164 -17.15442,-17.96056 -23.67297,-29.66968 -6.73839,-12.104 -13.0145,-25.9467 -15.85885,-40.80588 -1.46866,-7.67245 -1.88694,-15.8619 -0.19094,-23.53489 a 22.347134,30.765 0 0 1 7.37178,-14.992 c 6.54411,-7.30922 15.79583,-9.93361 23.97389,-7.47083 9.21432,2.77485 16.34278,12.32132 20.16799,23.93284 a 38.746495,53.34178 0 0 1 1.29796,38.867 c -3.29936,13.42386 -10.14141,24.89826 -18.36675,33.24258 -9.36286,9.49831 -20.52209,14.886 -31.91713,17.541 -25.56555,5.95658 -51.24696,-1.83319 -76.86017,-2.54847 -11.67212,-0.326 -23.63589,0.91057 -34.66759,6.52729 a 59.23383,81.54642 0 0 0 -25.15178,24.752 c -14.575778,24.34242 -18.610626,56.64547 -15.160385,87.26775 a 114.10796,157.0909 0 0 0 4.294296,24.47749 c 0.431798,1.82821 2.536692,1.04591 2.101299,-0.79752 z"
       fill="#e5e5e5"
       id="path197"
       style="stroke-width:0.85228" />
    <path
       d="M 525.79799,206.94034 H 260.97861 v -3 c 0,-61.43115 18.55626,-112.05908 53.66274,-146.41064 C 346.95568,25.91055 391.47152,9.1971796 443.37689,9.1971796 h 82.4211 c 26.6243,0 49.09997,7.5883704 64.99777,21.9453104 18.15687,16.39648 27.36315,40.624 27.36315,72.00976 0,31.46631 -9.41449,58.02051 -27.22547,76.792 -16.51789,17.40869 -39.64995,26.99609 -65.13545,26.99609 z m -260.15752,-6 h 260.15752 c 52.46418,0 87.71344,-39.29785 87.71344,-97.78809 0,-79.38476 -61.34065,-87.95507 -87.71344,-87.95507 h -82.4211 c -85.31141,0 -176.42838,48.86425 -177.73644,185.74316 z"
       fill="#e5e5e5"
       id="path203"
       style="stroke-width:0.880102" />
  </g>
  <path
     d="m 312.07579,549.79271 0.27947,-1.11159 c 0.0619,-0.24431 6.36634,-24.57731 25.39652,-37.79 19.031,-13.21329 44.03265,-10.616 44.28246,-10.58815 l 1.13953,0.12644 -0.27952,1.1111 c -0.0619,0.24432 -6.36641,24.57684 -25.39652,37.79 -19.031,13.2133 -44.03266,10.616 -44.28247,10.58816 z m 26.81659,-37.2584 c -16.09012,11.171 -22.79246,30.59378 -24.27036,35.49007 5.10554,0.32313 25.66044,0.82378 41.735,-10.33707 16.07271,-11.15966 22.78782,-30.59129 24.27035,-35.49007 -5.10845,-0.32329 -25.6613,-0.8232 -41.73499,10.33707 z"
     fill="#f1f1f1"
     id="path193" />
  <path
     d="m 345.80196,518.43922 c -9.598,20.969 -32.20979,31.17919 -32.20979,31.17919 0,0 -7.05044,-23.78726 2.54751,-44.75623 9.59795,-20.96897 32.20979,-31.17914 32.20979,-31.17914 0,0 7.05045,23.78721 -2.54751,44.75618 z"
     fill="#f1f1f1"
     id="path195" />
  <rect
     x="14.1063"
     y="534.97211"
     width="19"
     height="15"
     fill="#6c63ff"
     id="rect199" />
  <path
     d="M 382,550.97204 H 1 a 1,1 0 0 1 0,-2 h 381 a 1,1 0 0 1 0,2 z"
     fill="#cbcbcb"
     id="path241" />
  <g
     inkscape:groupmode="layer"
     id="layer2"
     inkscape:label="Background"
     style="display:inline">
    <path
       d="m 120.42136,337.48874 a 13.74945,13.74945 0 0 0 -4.48249,-20.60118 l 7.248,-48.32052 -23.03572,10.67925 -3.35122,44.24875 a 13.824,13.824 0 0 0 23.62143,13.99371 z"
       fill="#ffb7b7"
       id="path245" />
    <path
       d="m 225.76833,88.3964 c 0,0 -58.06058,-5.16132 -83.4728,15.9298 l -7.87915,189.08034 4.3453,14.755 c 0,0 20.78255,4.14788 46.00043,-3.00681 25.21788,-7.15469 59.62815,3.00681 59.62815,3.00681 l 3.6995,-115.78 z"
       fill="#cbcbcb"
       id="path263" />
    <path
       d="m 140.29358,296.91122 18.119,-183.94281 -3.41955,-15.86121 c 0,0 -34.95641,9.87253 -47.6938,28.61876 l 22.98928,159.39991 v 14.81374 z"
       fill="#3f3d56"
       id="path265" />
    <path
       d="m 221.5244,284.6957 c 0,0 -48.61125,-164.89652 -31.16667,-195.02517 0,0 35.08912,-9.89491 51.85483,2.30965 l 9.286,101.27732 c 0,0 18.63053,57.907 4.34434,71.52512 l 3.13541,13.61815 c 0,0 -19.05936,1.12314 -23.14031,1.65042 -4.08095,0.52728 -14.3136,4.64451 -14.3136,4.64451 z"
       fill="#3f3d56"
       id="path267" />
    <path
       d="m 118.13658,124.63472 -10.83732,1.09124 c 0,0 -3.89573,2.11574 -3.41673,11.51983 0.479,9.40409 -11.245,147.21168 -5.383,156.16068 l -3.39325,11.67113 23.9547,6.5331 1.42323,-11.67109 c 0,0 9.70346,-30.16632 10.94543,-37.82993 1.24197,-7.66361 -13.29306,-137.47496 -13.29306,-137.47496 z"
       fill="#3f3d56"
       id="path269" />
    <g
       inkscape:groupmode="layer"
       id="layer4"
       inkscape:label="BackLayer">
      <polygon
         points="190.07,594.085 173.49,594.084 165.603,530.133 190.073,530.134 "
         fill="#ffb7b7"
         id="polygon247"
         style="display:inline" />
      <polygon
         points="249.331,555.947 233.847,561.911 203.476,505.027 226.328,496.225 "
         fill="#ffb7b7"
         id="polygon251"
         style="display:inline" />
    </g>
    <g
       inkscape:groupmode="layer"
       id="layer5"
       inkscape:label="FrontLayer">
      <circle
         cx="166.53743"
         cy="50.04847"
         r="30.48781"
         fill="#ffb8b8"
         id="circle259"
         style="display:inline" />
      <path
         d="M 196.62891,17.60848 A 37.5812,37.5812 0 0 0 175.25115,1.2656896 l -6.536,5.22879 2.5411,-6.09880002 a 34.59689,34.59689 0 0 0 -6.46,-0.37336 l -5.88075,7.56100002 2.434,-7.30200002 A 37.22205,37.22205 0 0 0 135.67191,15.55504 c -7.48475,10.79236 -6.98382,25.7944 0.37775,36.67116 2.02089,-6.21027 2.70963,-12.03092 4.73049,-18.24123 a 18.38228,18.38228 0 0 0 4.78817,0.0233 l 2.45869,-5.73681 0.68678,5.49414 c 7.62049,-0.664 18.92356,-2.12154 26.14809,-3.4571 l -0.70246,-4.21474 4.20294,3.50247 c 2.21346,-0.50958 3.5276,-0.97161 3.419,-1.32477 5.373,8.66195 10.69687,14.19453 16.06971,22.85642 2.03958,-12.21794 5.64015,-22.37386 -1.22216,-33.51942 z"
         fill="#2f2e41"
         id="path261"
         style="display:inline" />
      <path
         d="m 237.07615,282.40304 a 13.74955,13.74955 0 0 1 15.85974,-13.89139 l 22.92326,-43.15009 12.16133,22.28888 -23.63278,37.55892 a 13.824,13.824 0 0 1 -27.31155,-2.80632 z"
         fill="#ffb7b7"
         id="path271"
         style="display:inline" />
      <path
         d="m 194.29853,610.15676 -53.46052,-0.002 v -0.67619 a 20.80943,20.80943 0 0 1 20.80832,-20.808 h 0.001 l 32.65187,10e-4 z"
         fill="#2f2e41"
         id="path249"
         style="display:inline" />
      <path
         d="m 259.06104,569.43467 -49.92528,19.2296 -0.24325,-0.63147 a 20.825,20.825 0 0 1 11.94674,-26.91714 l 0.001,-4.7e-4 30.49267,-11.74468 z"
         fill="#2f2e41"
         id="path253"
         style="display:inline" />
      <polygon
         points="223.581,458.657 194.687,333.962 194.061,289.516 141.884,299.94 137.199,326.966 212.158,554.969 252.175,542.753 "
         fill="#2f2e41"
         id="polygon255"
         style="display:inline" />
      <polygon
         points="158.371,581.952 171.87,489.638 169.693,472.216 194.061,418.738 191.253,291.986 244.39,299.94 223.581,463.201 196.481,559.086 191.037,579.774 "
         fill="#2f2e41"
         id="polygon257"
         style="display:inline" />
    </g>
    <path
       d="m 228.216,97.33012 12.90771,-5.34994 c 0,0 21.01824,11.42433 22.70294,22.70294 1.6847,11.27861 43.27965,84.29344 43.27965,84.29344 0,0 -14.87169,65.00208 -28.23331,68.94659 l -7.26148,8.0127 -20.06229,-12.92705 6.49979,-6.49979 c 0,0 -0.17052,-34.38618 5.82362,-40.546 0,0 -16.87172,-43.18072 -24.49367,-47.53613 C 231.75701,164.07147 228.216,97.33012 228.216,97.33012 Z"
       fill="#3f3d56"
       id="path273"
       style="display:inline" />
  </g>
  <path
     d="M 231,611.97204 H 114 a 1,1 0 0 1 0,-2 h 117 a 1,1 0 1 1 0,2 z"
     fill="#cbcbcb"
     id="path243" />
  <g
     inkscape:groupmode="layer"
     id="layer3"
     inkscape:label="FakeText">
    <g
       id="g437"
       transform="translate(-24)">
      <rect
         x="411.64078"
         y="66.118118"
         width="35.027931"
         height="9.6362495"
         fill="#6c63ff"
         id="rect205"
         style="stroke-width:0.935466" />
      <rect
         x="555.64447"
         y="66.118118"
         width="12.324639"
         height="9.6362495"
         fill="#6c63ff"
         id="rect207"
         style="stroke-width:0.935466" />
      <rect
         x="580.29376"
         y="66.118118"
         width="12.324639"
         height="9.6362495"
         fill="#6c63ff"
         id="rect209"
         style="stroke-width:0.935466" />
      <rect
         x="458.99335"
         y="66.118118"
         width="83.677834"
         height="9.6362495"
         fill="#6c63ff"
         id="rect211"
         style="stroke-width:0.935466" />
    </g>
    <g
       id="g500"
       transform="translate(-24)">
      <rect
         x="367.53149"
         y="128.24054"
         width="35.027931"
         height="9.6362495"
         fill="#6c63ff"
         id="rect213"
         style="stroke-width:0.935466" />
      <rect
         x="511.53525"
         y="128.24054"
         width="12.324639"
         height="9.6362495"
         fill="#6c63ff"
         id="rect215"
         style="stroke-width:0.935466" />
      <rect
         x="536.18451"
         y="128.24054"
         width="12.324639"
         height="9.6362495"
         fill="#6c63ff"
         id="rect217"
         style="stroke-width:0.935466" />
      <rect
         x="414.88409"
         y="128.24054"
         width="83.677834"
         height="9.6362495"
         fill="#6c63ff"
         id="rect219"
         style="stroke-width:0.935466" />
    </g>
    <g
       id="g444"
       transform="translate(-24,-0.78878784)">
      <rect
         x="512.1839"
         y="87.614372"
         width="35.027931"
         height="9.6362495"
         fill="#6c63ff"
         id="rect221"
         style="stroke-width:0.935466" />
      <rect
         x="559.53644"
         y="87.614372"
         width="35.027931"
         height="9.6362495"
         fill="#6c63ff"
         id="rect223"
         style="stroke-width:0.935466" />
      <rect
         x="606.88904"
         y="87.614372"
         width="12.324639"
         height="9.6362495"
         fill="#6c63ff"
         id="rect225"
         style="stroke-width:0.935466" />
      <rect
         x="392.18082"
         y="87.614372"
         width="12.324639"
         height="9.6362495"
         fill="#6c63ff"
         id="rect227"
         style="stroke-width:0.935466" />
      <rect
         x="416.83008"
         y="87.614372"
         width="83.677834"
         height="9.6362495"
         fill="#6c63ff"
         id="rect229"
         style="stroke-width:0.935466" />
    </g>
    <g
       id="g494"
       transform="translate(-24)">
      <rect
         x="384.55927"
         y="148.94801"
         width="12.324639"
         height="9.6362495"
         fill="#6c63ff"
         id="rect215-4"
         style="stroke-width:0.935466" />
      <rect
         x="507.04999"
         y="148.94801"
         width="35.027931"
         height="9.6362495"
         fill="#6c63ff"
         id="rect221-8"
         style="stroke-width:0.935466" />
      <rect
         x="411.69614"
         y="148.94801"
         width="83.677834"
         height="9.6362495"
         fill="#6c63ff"
         id="rect229-8"
         style="stroke-width:0.935466" />
    </g>
    <g
       id="g451"
       transform="translate(-24,-0.83633423)">
      <rect
         x="439.53339"
         y="108.36939"
         width="35.027931"
         height="9.6362495"
         fill="#6c63ff"
         id="rect231"
         style="stroke-width:0.935466" />
      <rect
         x="392.18082"
         y="108.36939"
         width="35.027931"
         height="9.6362495"
         fill="#6c63ff"
         id="rect233"
         style="stroke-width:0.935466" />
      <rect
         x="606.88904"
         y="108.36939"
         width="12.324639"
         height="9.6362495"
         fill="#6c63ff"
         id="rect235"
         style="stroke-width:0.935466" />
      <rect
         x="582.23975"
         y="108.36939"
         width="12.324639"
         height="9.6362495"
         fill="#6c63ff"
         id="rect237"
         style="stroke-width:0.935466" />
      <rect
         x="486.2373"
         y="108.36939"
         width="83.677834"
         height="9.6362495"
         fill="#6c63ff"
         id="rect239"
         style="stroke-width:0.935466" />
    </g>
  </g>
</svg>
