<?xml version="1.0" encoding="UTF-8" standalone="no"?>
<svg
   id="a27b99c7-e964-4c47-a10a-750eac27831c"
   data-name="Layer 1"
   width="693.60059"
   height="692.42456"
   viewBox="0 0 693.60058 692.42454"
   version="1.1"
   sodipodi:docname="undraw_stars_re_6je7.svg"
   inkscape:version="1.1.1 (c3084ef, 2021-09-22)"
   xmlns:inkscape="http://www.inkscape.org/namespaces/inkscape"
   xmlns:sodipodi="http://sodipodi.sourceforge.net/DTD/sodipodi-0.dtd"
   xmlns="http://www.w3.org/2000/svg"
   xmlns:svg="http://www.w3.org/2000/svg">
  <defs
     id="defs1007" />
  <sodipodi:namedview
     id="namedview1005"
     pagecolor="#ffffff"
     bordercolor="#666666"
     borderopacity="1.0"
     inkscape:pageshadow="2"
     inkscape:pageopacity="0.0"
     inkscape:pagecheckerboard="0"
     showgrid="false"
     fit-margin-top="0"
     fit-margin-left="0"
     fit-margin-right="0"
     fit-margin-bottom="0"
     inkscape:zoom="0.44540249"
     inkscape:cx="358.10307"
     inkscape:cy="363.71597"
     inkscape:window-width="1366"
     inkscape:window-height="768"
     inkscape:window-x="0"
     inkscape:window-y="0"
     inkscape:window-maximized="0"
     inkscape:current-layer="layer7" />
  <circle
     cx="275.17169"
     cy="690.34076"
     fill="#f0f0f0"
     id="circle944"
     rx="1.80116"
     ry="2.0837896"
     style="stroke-width:0.895638" />
  <circle
     cx="133.1255"
     cy="2.0837896"
     fill="#f0f0f0"
     id="circle946"
     rx="1.80116"
     ry="2.0837896"
     style="stroke-width:0.895638" />
  <g
     inkscape:groupmode="layer"
     id="layer9"
     inkscape:label="Asteroid"
     style="display:inline"
     transform="translate(-23.181908,128.78571)">
    <path
       d="m 611.38198,268.72777 c -3.09646,39.83001 -18.68678,78.3194 -40.92671,110.15196 q -1.39466,1.99705 -2.82259,3.95711 -3.21265,4.41015 -6.59144,8.65387 -4.13417,5.22839 -8.50907,10.21643 -3.56139,4.10499 -7.2888,8.03436 -2.87649,3.06491 -5.81938,6.00963 c -23.60143,23.75193 -50.71443,43.35257 -78.64922,60.49394 -54.51645,33.4413 -114.27114,58.77417 -176.42504,62.46321 -62.14558,3.67974 -127.02242,-16.1428 -172.5981,-63.35079 C 50.328265,411.73859 33.18555,305.62696 58.123447,216.43475 74.709994,157.09656 108.56377,103.41666 154.63762,68.357386 200.31285,33.603215 257.93408,17.959675 312.46713,28.185344 c 43.53345,-29.46575 100.52378,-30.029676 147.85104,-8.21933 25.25338,11.640194 47.91678,28.94794 67.79905,49.861465 a 281.70848,313.74295 0 0 1 25.50241,30.723101 q 1.20791,1.65034 2.39085,3.32841 4.95605,6.97579 9.58831,14.2382 6.64956,10.41516 12.62673,21.29259 c 1.09577,1.99706 2.1833,4.00334 3.24589,6.02813 0.71393,1.35911 1.4362,2.72745 2.14185,4.10505 a 0.24718774,0.27529668 0 0 1 0.0331,0.0924 c 11.04938,21.64392 20.08149,44.73939 24.78854,68.87964 0.83016,4.27146 1.52748,8.56142 2.06711,12.88835 v 0.01 q 0.70978,5.50576 1.07087,11.06697 a 146.9189,163.62578 0 0 1 -0.19098,26.24816 z"
       fill="#3f3d56"
       id="path910"
       style="display:inline;stroke-width:0.87609" />
    <path
       d="m 574.23152,447.21165 q -16.07866,0 -35.24564,-1.51743 C 472.89384,440.45353 387.28466,422.23309 297.92805,394.39072 208.57176,366.54835 126.14335,332.40844 65.828015,298.26246 36.44659,281.6283 13.896553,265.88295 -1.195052,251.4627 c -15.978102,-15.26604 -22.967136,-28.57279 -20.773807,-39.54915 4.273655,-21.38388 42.11473,-26.06224 73.107001,-26.22117 l 0.01052,3.1098 c -42.560575,0.21816 -67.669195,8.69366 -70.700811,23.86456 -3.861773,19.32233 27.633142,49.48794 86.408545,82.76333 60.182774,34.07108 142.459644,68.14518 231.674794,95.94402 89.2148,27.79783 174.66627,45.98688 240.61284,51.21645 64.40246,5.10807 103.55643,-3.04501 107.41778,-22.36786 3.20594,-16.04296 -17.92984,-39.67617 -59.51351,-66.54776 l 1.14468,-2.76155 c 30.21528,19.52529 65.28818,47.52962 60.78556,70.06247 -2.1938,10.9764 -13.37006,18.62232 -33.21889,22.72518 -11.31457,2.33839 -25.21196,3.51063 -41.52811,3.51063 z"
       fill="#6c63ff"
       id="path966"
       style="display:inline;stroke-width:0.927655" />
    <path
       d="m 176.92892,484.96954 c -29.55286,0.001 -57.02718,-1.26539 -81.622985,-3.82044 C 63.156773,477.8085 37.680906,472.43824 19.586876,465.18914 0.429607,457.51285 -9.733746,447.91216 -10.621053,436.65334 -12.35027,414.72079 22.032367,394.4383 51.18029,381.28545 l 0.846371,2.92556 c -40.027542,18.06149 -61.395968,36.57753 -60.169402,52.13864 1.562215,19.81886 39.342908,35.01758 103.654977,41.69979 65.852464,6.84214 152.514344,4.41769 244.022574,-6.83103 91.50824,-11.24567 176.88644,-29.96416 240.40643,-52.70655 62.03446,-22.20991 96.71741,-46.31487 95.15516,-66.13372 -1.29715,-16.45496 -27.56342,-29.84677 -73.96024,-37.71029 l 0.33486,-3.08146 c 33.71259,5.71344 74.28203,17.37516 76.10367,40.48705 0.88777,11.25882 -7.58203,23.1493 -25.17267,35.3415 -16.6153,11.51595 -40.76364,22.98434 -71.77416,34.08626 -63.66064,22.793 -149.19568,41.54793 -240.8491,52.81283 -57.49605,7.0659 -113.10482,10.65551 -162.84984,10.65551 z"
       fill="#6c63ff"
       id="path988"
       style="display:inline;stroke-width:0.927655" />
  </g>
  <g
     inkscape:groupmode="layer"
     id="layer7"
     inkscape:label="Background"
     style="display:inline"
     transform="translate(-23.18189,128.78571)">
    <circle
       cx="225.30231"
       cy="543.94849"
       fill="#f0f0f0"
       id="circle932"
       r="2.16307" />
    <circle
       cx="305.45654"
       cy="350.48306"
       fill="#6c63ff"
       id="circle936"
       r="3.7023399" />
    <circle
       cx="171.45653"
       cy="416.48306"
       fill="#6c63ff"
       id="circle938"
       r="17.483049" />
    <circle
       cx="267.30231"
       cy="435.94852"
       fill="#f0f0f0"
       id="circle940"
       r="2.16307" />
    <circle
       cx="296.58145"
       cy="480.59402"
       fill="#f0f0f0"
       id="circle950"
       r="2.16307" />
    <circle
       cx="174.69623"
       cy="58.632629"
       fill="#e6e6e6"
       id="circle992"
       r="17.483049" />
    <circle
       cx="19.45653"
       cy="433.48306"
       fill="#e6e6e6"
       id="circle994"
       r="17.483049" />
    <circle
       cx="64.752403"
       cy="137.87561"
       fill="#ff6584"
       id="circle996"
       r="10.70234" />
    <circle
       cx="77.456528"
       cy="514.48303"
       fill="#ff6584"
       id="circle998"
       r="10.70234" />
    <path
       d="M 514.52062,370.43296 366.05909,246.75511 510.28703,375.38684 a 3.44161,3.44161 0 1 0 4.23359,-4.95386 z"
       fill="#f0f0f0"
       opacity="0.3"
       id="path912" />
    <circle
       cx="114.62107"
       cy="279.02518"
       fill="#6c63ff"
       id="circle928"
       r="3.7023399" />
    <circle
       cx="572.30231"
       cy="119.94851"
       fill="#f0f0f0"
       id="circle930"
       r="2.16307" />
    <circle
       cx="584.58142"
       cy="331.59402"
       fill="#f0f0f0"
       id="circle934"
       r="2.16307" />
    <circle
       cx="487.30231"
       cy="97.948509"
       fill="#f0f0f0"
       id="circle942"
       r="2.16307" />
    <circle
       cx="382.30231"
       cy="222.94852"
       fill="#f0f0f0"
       id="circle948"
       r="2.16307" />
    <circle
       cx="549.58142"
       cy="494.59402"
       fill="#f0f0f0"
       id="circle952"
       r="2.16307" />
    <circle
       cx="437.58145"
       cy="368.59402"
       fill="#f0f0f0"
       id="circle954"
       r="2.16307" />
    <circle
       cx="494.58145"
       cy="222.59402"
       fill="#f0f0f0"
       id="circle956"
       r="2.16307" />
    <circle
       cx="106.37656"
       cy="363.19687"
       fill="#ff6584"
       id="circle958"
       r="4.2888899" />
    <circle
       cx="424.21204"
       cy="150.65472"
       fill="#ff6584"
       id="circle960"
       r="4.2888899" />
    <circle
       cx="424.21204"
       cy="445.65472"
       fill="#ff6584"
       id="circle962"
       r="4.2888899" />
    <circle
       cx="679.76233"
       cy="360.42874"
       fill="#6c63ff"
       id="circle990"
       r="17.483049" />
    <ellipse
       cx="636.79663"
       cy="440.62521"
       fill="#e6e6e6"
       id="circle1002"
       rx="17.483"
       ry="17.483049" />
  </g>
  <g
     inkscape:groupmode="layer"
     id="layer10"
     inkscape:label="Moon"
     style="display:inline"
     transform="translate(-23.181908,128.78571)">
    <circle
       cx="112.18191"
       cy="-12.639737"
       fill="#f2f2f2"
       id="circle914"
       r="89"
       style="display:inline" />
    <path
       d="m 191.1819,-18.639741 a 80.99369,80.99369 0 0 1 -81,81 81.57161,81.57161 0 0 1 -27.799999,-4.9 81.05489,81.05489 0 1 1 108.799999,-76.1 z"
       fill="#ffffff"
       id="path916"
       style="display:inline" />
    <circle
       cx="96.181908"
       cy="-45.639736"
       fill="#e4e4e4"
       id="circle918"
       r="25"
       style="display:inline" />
    <path
       d="m 188.02193,-41.109771 a 25.00115,25.00115 0 0 1 -27.6,-41.08 81.05279,81.05279 0 0 1 27.6,41.08 z"
       fill="#f2f2f2"
       id="path920"
       style="display:inline" />
    <circle
       cx="137.18192"
       cy="8.3602476"
       fill="#e4e4e4"
       id="circle922"
       r="9"
       style="display:inline" />
    <path
       d="m 100.1819,59.360259 a 9.04581,9.04581 0 0 1 -0.309999,2.34 79.52774,79.52774 0 0 1 -17.49,-4.24 9.00157,9.00157 0 0 1 17.799999,1.9 z"
       fill="#f2f2f2"
       id="path924"
       style="display:inline" />
    <path
       d="m 47.181901,-22.639741 a 18.002,18.002 0 0 1 -16.8,17.96 81.54773,81.54773 0 0 1 1.76,-35.71 18.00026,18.00026 0 0 1 15.04,17.75 z"
       fill="#f2f2f2"
       id="path926"
       style="display:inline" />
  </g>
  <g
     inkscape:groupmode="layer"
     id="layer8"
     inkscape:label="Foreground"
     style="display:inline"
     transform="translate(-23.18189,128.78571)">
    <path
       d="m 616.65399,243.08281 a 6.1552,6.1552 0 0 0 -5.912,4.464 5.91168,5.91168 0 0 0 -0.24,1.696 v 9.632 q 3.588,-3.39595 7.024,-6.95195 4.212,-4.32005 8.2,-8.84004 z"
       fill="#6c63ff"
       id="path964"
       style="stroke-width:0.8" />
    <circle
       cx="635.18188"
       cy="33.810856"
       r="80.400002"
       fill="#ffffff"
       id="circle968"
       style="stroke-width:0.8" />
    <path
       d="m 635.18197,-47.789158 a 81.6,81.6 0 1 0 81.6,81.6 81.308,81.308 0 0 0 -81.6,-81.6 z m 0,160.799998 a 79.2,79.2 0 1 1 79.2,-79.199998 78.894136,78.894136 0 0 1 -79.2,79.199998 z"
       fill="#2f2e41"
       id="path970"
       style="stroke-width:0.8" />
    <path
       d="m 564.6257,53.067482 a 1.600624,1.600624 0 0 1 -1.5656,-1.27812 78.135392,78.135392 0 0 1 17.87266,-66.50821 1.6,1.6 0 0 1 2.38906,2.12891 74.877456,74.877456 0 0 0 -17.12732,63.73476 1.601824,1.601824 0 0 1 -1.56875,1.92266 z"
       fill="#2f2e41"
       id="path972"
       style="stroke-width:0.8" />
    <circle
       cx="635.13159"
       cy="57.405262"
       r="51.101616"
       fill="#6c63ff"
       id="circle974"
       style="stroke-width:0.8" />
    <path
       d="m 618.89054,76.698032 c -3.31249,-0.092 -7.43508,-0.20695 -10.61107,-2.52699 a 8.148944,8.148944 0 0 1 -3.20645,-6.08486 5.481704,5.481704 0 0 1 1.86406,-4.5021 c 1.65881,-1.40173 4.08111,-1.73051 6.69153,-0.96336 l -2.70461,-19.76488 1.98539,-0.272 3.17955,23.23614 -1.65796,-0.7608 c -1.92216,-0.88164 -4.5607,-1.33028 -6.20032,0.0553 a 3.522104,3.522104 0 0 0 -1.155,2.90127 6.159096,6.159096 0 0 0 2.38597,4.53686 c 2.47159,1.80534 5.75766,2.03823 9.48468,2.1424 z"
       fill="#2f2e41"
       id="path976"
       style="stroke-width:0.8" />
    <rect
       x="590.31219"
       y="44.560413"
       width="10.793064"
       height="2.003984"
       fill="#2f2e41"
       id="rect978"
       style="stroke-width:0.8" />
    <rect
       x="624.37988"
       y="44.560398"
       width="10.793064"
       height="2.003984"
       fill="#2f2e41"
       id="rect980"
       style="stroke-width:0.8" />
    <path
       d="m 637.27797,121.13882 h -46.32 a 6.517728,6.517728 0 0 0 -6.51196,6.512 v 102.664 a 38.13564,38.13564 0 0 0 20.448,33.75996 q 2.844,-2.544 5.608,-5.2 3.588,-3.39595 7.024,-6.95195 4.212,-4.32005 8.2,-8.84004 3.26404,-3.672 6.352,-7.488 1.38,-1.692 2.72,-3.424 c 21.432,-27.544 36.456,-60.848 39.44,-95.312 a 51.238832,51.238832 0 0 0 -36.96004,-15.71997 z"
       fill="#2f2e41"
       id="path982"
       style="stroke-width:0.8" />
    <path
       d="m 638.96595,142.56284 a 11.689088,11.689088 0 0 0 -8.344,-3.336 11.572,11.572 0 0 0 -7.328,2.68804 10.498104,10.498104 0 0 0 -0.936,0.856 l -37.91196,38.88 -27.496,28.2 a 5.440488,5.440488 0 0 0 -1.024,1.44 5.836584,5.836584 0 0 0 -0.616,2.656 5.734008,5.734008 0 0 0 1.74405,4.056 l 1.08,1.056 7.84,7.64 0.008,-0.008 a 5.832584,5.832584 0 0 0 3.728,1.304 5.7336,5.7336 0 0 0 4.056,-1.744 l 1.272,-1.296 9.104,-9.336 0.304,-0.312 54.728,-56.128 a 11.753024,11.753024 0 0 0 -0.208,-16.616 z"
       fill="#6c63ff"
       id="path984"
       style="stroke-width:0.8" />
    <path
       d="m 638.58132,33.564702 c 1.68992,-3.57326 -0.0428,-7.39009 -3.01103,-9.67257 -3.74045,-2.87632 -8.57768,-2.40068 -12.83206,-1.03924 -4.6579,1.49056 -9.21093,4.17286 -14.24306,4.01869 a 8.904464,8.904464 0 0 1 -8.19526,-5.82211 c -2.69496,-6.9112 0.34849,-14.6358995 5.03977,-19.8774495 a 27.414128,27.414128 0 0 1 21.2352,-9.2688 27.719912,27.719912 0 0 1 22.4544,13.52208 1.232632,1.232632 0 0 0 1.64183,0.43051 29.5058,29.5058 0 0 1 22.71502,-0.57146 29.031872,29.031872 0 0 1 18.06433,27.5934995 c -0.04,1.54498 2.36004,1.54408 2.4,0 A 31.91324,31.91324 0 0 0 685.37104,10.627862 30.974968,30.974968 0 0 0 663.31759,0.89369247 31.469128,31.469128 0 0 0 649.45978,3.7834725 l 1.64183,0.4305 a 30.159088,30.159088 0 0 0 -20.07904,-14.1824 29.188336,29.188336 0 0 0 -23.53907,5.86218 c -6.16132,4.82165997 -10.83079,12.30413 -10.54015,20.3285695 0.12577,3.47237 1.1577,7.0368 3.56848,9.62441 3.08785,3.31429 7.69783,3.88755 11.95705,3.0384 5.66043,-1.12857 10.82826,-4.8516 16.72906,-4.73691 a 8.169312,8.169312 0 0 1 6.11336,2.75624 c 1.29964,1.46668 2.08336,3.57634 1.19773,5.44898 -0.65675,1.38868 1.4117,2.60821 2.07233,1.21133 z"
       fill="#2f2e41"
       id="path986"
       style="stroke-width:0.8" />
  </g>
</svg>
